<svg id="cell_bg" xmlns="http://www.w3.org/2000/svg" width="259.8" height="259.28" viewBox="0 0 259.8 259.28"><defs><style>.gr-l{fill:#ededed;}.gr-d{fill:#e5e5e5;}.grn{fill:#ddebc4;}</style></defs><title>bg_sm</title><g id="gray_lighter"><path class="gr-l" d="M31.76,167.45a0.57,0.57,0,0,0,.2.75,0.58,0.58,0,0,0,.75-0.2,16.56,16.56,0,0,1,11.76-7.81,6.46,6.46,0,0,1-.25-1.05A17.57,17.57,0,0,0,31.76,167.45Z" transform="translate(-0.2 -0.46)"/><path class="gr-l" d="M52,160.24c-1-1-3.85-1.45-6.81-1.15a8,8,0,0,0,.25,1.05c3-.25,5.21.3,5.76,0.85,1.3,1.3,1.1,14.27-1.35,16.77l-12,12a6.4,6.4,0,0,1-9.06,0l-6.36-6.36a6.4,6.4,0,0,1,0-9l10.71-10.71a0.53,0.53,0,0,0-.75-0.75L21.75,173.55a7.47,7.47,0,0,0-2.2,5.26,7.18,7.18,0,0,0,2.2,5.26l6.36,6.41a7.44,7.44,0,0,0,5.26,2.2,7.23,7.23,0,0,0,5.26-2.2l12-12C53.38,175.76,53.88,162.14,52,160.24Z" transform="translate(-0.2 -0.46)"/><path class="gr-l" d="M45.32,155.88a3.07,3.07,0,0,1,1.5-2,0.53,0.53,0,1,0-.45-1,4,4,0,0,0-2.05,2.6,7.51,7.51,0,0,0-.1,3.65,8,8,0,0,0,.25,1.05,9.68,9.68,0,0,0,.65,1.6A12.37,12.37,0,0,0,46.77,164c0.9,1.05,2,2.4,1.9,3.05a0.34,0.34,0,0,1-.25.3c-0.4.2-.55,0.2-1.15-0.7a4.57,4.57,0,0,0-1.05-1.15,4.8,4.8,0,0,0-3.8-.4A4.15,4.15,0,0,0,40.17,167a3.86,3.86,0,0,0,.4,4.3,4,4,0,0,0,3,1.35,3.64,3.64,0,0,0,1.25-.2,3,3,0,0,0,1.9-1.75c0.45-1.15.15-2.05-1-3.05a0.53,0.53,0,0,0-.7.8c0.85,0.8.9,1.3,0.65,1.9a2.2,2.2,0,0,1-1.25,1.15,2.74,2.74,0,0,1-3.35-3.9,3,3,0,0,1,1.7-1.4,3.48,3.48,0,0,1,2.9.3,2.46,2.46,0,0,1,.7.85c0.45,0.65,1.2,1.75,2.55,1a1.41,1.41,0,0,0,.75-1.05c0.2-1.1-.9-2.45-2.1-3.9a15.62,15.62,0,0,1-1.55-2,8,8,0,0,1-.5-1.15,5.41,5.41,0,0,1-.25-1.05A6.68,6.68,0,0,1,45.32,155.88Z" transform="translate(-0.2 -0.46)"/><path class="gr-l" d="M189.78,140.57c-6.76,0-11.46-2.2-11.46-4.2a0.55,0.55,0,1,0-1.1,0c0,3,5.51,5.26,12.51,5.26a21.38,21.38,0,0,0,9-1.7v-1.2A19.18,19.18,0,0,1,189.78,140.57Z" transform="translate(-0.2 -0.46)"/><path class="gr-l" d="M190.33,131.81c-6.16,0-10.81,2-10.81,4.55a0.55,0.55,0,0,0,1.1,0c0-1.65,4-3.5,9.76-3.5a18.33,18.33,0,0,1,8.46,1.7v-1.2A21.36,21.36,0,0,0,190.33,131.81Z" transform="translate(-0.2 -0.46)"/><path class="gr-l" d="M189.18,144.92c-6.41,0-10.86-2.1-10.86-4a1.84,1.84,0,0,1,.25-0.8,0.54,0.54,0,1,0-.9-0.6,2.42,2.42,0,0,0-.45,1.35c0,2.8,5.26,5,11.91,5a22.15,22.15,0,0,0,9.61-1.85v-1.2C196.84,144,193.38,144.92,189.18,144.92Z" transform="translate(-0.2 -0.46)"/><path class="gr-l" d="M189.78,149.48c-6.76,0-11.46-2.2-11.46-4.2a0.55,0.55,0,1,0-1.1,0c0,3,5.51,5.26,12.51,5.26a21.38,21.38,0,0,0,9-1.7v-1.2A19.18,19.18,0,0,1,189.78,149.48Z" transform="translate(-0.2 -0.46)"/><path class="gr-l" d="M178.42,148.63a0.56,0.56,0,0,0-.75.15,2.42,2.42,0,0,0-.45,1.35c0,2.8,5.26,5,11.91,5a22.15,22.15,0,0,0,9.61-1.85v-1.2c-2,1.15-5.41,2-9.61,2-6.41,0-10.86-2.1-10.86-4a1.84,1.84,0,0,1,.25-0.8A0.45,0.45,0,0,0,178.42,148.63Z" transform="translate(-0.2 -0.46)"/><path class="gr-l" d="M198.79,133.36v1.2c1.15,0.6,1.8,1.35,1.8,2.05s-0.65,1.45-1.8,2.1v1.2c1.8-.9,2.9-2,2.9-3.3S200.59,134.21,198.79,133.36Z" transform="translate(-0.2 -0.46)"/><path class="gr-l" d="M201.14,140.17a0.56,0.56,0,0,0-.55.55c0,0.75-.65,1.5-1.8,2.2v1.2c1.8-.9,2.9-2.1,2.9-3.4A0.56,0.56,0,0,0,201.14,140.17Z" transform="translate(-0.2 -0.46)"/><path class="gr-l" d="M201.24,144.17a0.54,0.54,0,1,0-.9.6,1.51,1.51,0,0,1,.25.8c0,0.7-.65,1.45-1.8,2.1v1.2c1.8-.9,2.9-2,2.9-3.3A2.34,2.34,0,0,0,201.24,144.17Z" transform="translate(-0.2 -0.46)"/><path class="gr-l" d="M201.69,149.93a0.55,0.55,0,0,0-1.1,0c0,0.75-.65,1.5-1.8,2.2v1.2C200.59,152.38,201.69,151.23,201.69,149.93Z" transform="translate(-0.2 -0.46)"/><path class="gr-l" d="M161.9,36.05a0.57,0.57,0,0,0,.2.75,0.58,0.58,0,0,0,.75-0.2,16.56,16.56,0,0,1,11.76-7.81,6.46,6.46,0,0,1-.25-1.05A17.57,17.57,0,0,0,161.9,36.05Z" transform="translate(-0.2 -0.46)"/><path class="gr-l" d="M181.42,29.6c1.3,1.3,1.1,14.27-1.35,16.77l-12,12a6.4,6.4,0,0,1-9.06,0L152.69,52a6.4,6.4,0,0,1,0-9L163.4,32.25a0.53,0.53,0,0,0-.75-0.75L151.94,42.21a7.47,7.47,0,0,0-2.2,5.26,7.18,7.18,0,0,0,2.2,5.26l6.36,6.36a7.44,7.44,0,0,0,5.26,2.2,7.23,7.23,0,0,0,5.26-2.2l12-12c2.75-2.75,3.25-16.37,1.35-18.27-1-1-3.85-1.45-6.81-1.15a8,8,0,0,0,.25,1.05C178.57,28.45,180.82,29,181.42,29.6Z" transform="translate(-0.2 -0.46)"/><path class="gr-l" d="M174.41,24.19a7.51,7.51,0,0,0-.1,3.65,8,8,0,0,0,.25,1.05,9.68,9.68,0,0,0,.65,1.6,12.37,12.37,0,0,0,1.65,2.15c0.9,1.05,2,2.4,1.9,3.05a0.34,0.34,0,0,1-.25.3c-0.4.2-.55,0.2-1.15-0.7a4.57,4.57,0,0,0-1.05-1.15,4.8,4.8,0,0,0-3.8-.4,4.15,4.15,0,0,0-2.25,1.85,3.86,3.86,0,0,0,.4,4.3,4,4,0,0,0,3,1.35,3.64,3.64,0,0,0,1.25-.2,3,3,0,0,0,1.9-1.75c0.45-1.15.15-2.05-1-3.05a0.53,0.53,0,1,0-.7.8c0.85,0.8.9,1.3,0.65,1.9a2.2,2.2,0,0,1-1.25,1.15,2.74,2.74,0,0,1-3.35-3.9,3,3,0,0,1,1.7-1.4,3.48,3.48,0,0,1,2.9.3,2.46,2.46,0,0,1,.7.85c0.45,0.65,1.2,1.75,2.55,1a1.41,1.41,0,0,0,.75-1.05c0.2-1.1-.9-2.45-2.1-3.9a15.62,15.62,0,0,1-1.55-2,8,8,0,0,1-.5-1.15,5.41,5.41,0,0,1-.25-1.05,6.92,6.92,0,0,1,.1-3.2,3.07,3.07,0,0,1,1.5-2,0.5,0.5,0,0,0,.25-0.65H176A3.7,3.7,0,0,0,174.41,24.19Z" transform="translate(-0.2 -0.46)"/><path class="gr-l" d="M177.22,21.89v-0.1a0.58,0.58,0,0,0-.7-0.25,4.4,4.4,0,0,0-.5.3h1.2v0.05Z" transform="translate(-0.2 -0.46)"/><path class="gr-l" d="M59,22.74a22,22,0,0,1-6.46-.85h-3A20.75,20.75,0,0,0,59,23.79a22.17,22.17,0,0,0,9.66-1.9h-3A24.94,24.94,0,0,1,59,22.74Z" transform="translate(-0.2 -0.46)"/><path class="gr-l" d="M49.38,5a0.55,0.55,0,1,0,1.1,0c0-1.65,4-3.5,9.76-3.5,6.06,0,10.31,2,10.31,3.75s-4.45,4-10.86,4C52.93,9.22,48.23,7,48.23,5a0.55,0.55,0,1,0-1.1,0c0,3,5.51,5.26,12.51,5.26,6.71,0,11.91-2.2,11.91-5s-5-4.81-11.36-4.81C54,0.41,49.38,2.37,49.38,5Z" transform="translate(-0.2 -0.46)"/><path class="gr-l" d="M48.18,9.57a1.84,1.84,0,0,1,.25-0.8,0.54,0.54,0,0,0-.9-0.6,2.42,2.42,0,0,0-.45,1.35,2.28,2.28,0,0,0,.25,1h1.25A1.57,1.57,0,0,1,48.18,9.57Z" transform="translate(-0.2 -0.46)"/><path class="gr-l" d="M71.55,9.32a0.55,0.55,0,0,0-1.1,0,1.83,1.83,0,0,1-.6,1.25h1.3A2.32,2.32,0,0,0,71.55,9.32Z" transform="translate(-0.2 -0.46)"/><path class="gr-l" d="M59,14.58c6,0,10.86-1.7,12.16-4H69.9c-1.45,1.55-5.51,3-10.86,3s-9.21-1.4-10.46-3H47.32C48.43,12.88,53.13,14.58,59,14.58Z" transform="translate(-0.2 -0.46)"/><path class="gr-l" d="M70.35,12.63a0.55,0.55,0,0,0-.15.75,1.51,1.51,0,0,1,.25.8c0,1.85-4.45,4-10.86,4-6.76,0-11.46-2.2-11.46-4.2a0.55,0.55,0,1,0-1.1,0c0,3,5.51,5.26,12.51,5.26,6.71,0,11.91-2.2,11.91-5A2.3,2.3,0,0,0,71,12.83,0.39,0.39,0,0,0,70.35,12.63Z" transform="translate(-0.2 -0.46)"/><path class="gr-l" d="M71.55,18.53a0.55,0.55,0,0,0-1.1,0c0,1.25-1.8,2.55-4.81,3.35h3C70.45,21,71.55,19.84,71.55,18.53Z" transform="translate(-0.2 -0.46)"/><path class="gr-l" d="M48.18,18.73a1.84,1.84,0,0,1,.25-0.8,0.54,0.54,0,0,0-.9-0.6,2.42,2.42,0,0,0-.45,1.35c0,1.2,1,2.3,2.55,3.15h2.9C49.83,21.09,48.18,19.89,48.18,18.73Z" transform="translate(-0.2 -0.46)"/></g><g id="gray_darker"><path class="gr-d" d="M91.65,214.25a5.07,5.07,0,0,0-3.25-2.75,1.65,1.65,0,0,1-1-1,4.47,4.47,0,0,0-2.45-3,4.61,4.61,0,0,0-4,.35,1.54,1.54,0,0,1-1.4-.05,4.14,4.14,0,0,0-3.8-.25,5.75,5.75,0,0,0-3,4.1,0.54,0.54,0,0,0,1.05.25,4.86,4.86,0,0,1,2.35-3.4,3.09,3.09,0,0,1,2.85.25,2.71,2.71,0,0,0,2.4.05,3.66,3.66,0,0,1,3.1-.3,3.51,3.51,0,0,1,1.85,2.35,2.55,2.55,0,0,0,1.65,1.7,4.12,4.12,0,0,1,2.6,2.15,3.81,3.81,0,0,1-.35,3.15,2.65,2.65,0,0,0,0,2.45,3.66,3.66,0,0,1,.35,3.1,4.18,4.18,0,0,1-2.7,2.25,2.55,2.55,0,0,0-1.6,1.6,3.86,3.86,0,0,1-5.81,2.4,2.44,2.44,0,0,0-2.2,0,4.27,4.27,0,0,1-3.45.3,4.35,4.35,0,0,1-2.35-2.8,2.53,2.53,0,0,0-1.45-1.5A4.76,4.76,0,0,1,68,223a4.19,4.19,0,0,1,.35-3.5,2.65,2.65,0,0,0,.05-2.3,4.16,4.16,0,0,1,3.5-6.41,0.53,0.53,0,0,0-.15-1.05,5.78,5.78,0,0,0-4.45,2.85,5.61,5.61,0,0,0,.2,5.11,1.44,1.44,0,0,1-.05,1.35,5.39,5.39,0,0,0-.4,4.35,6,6,0,0,0,3.65,3.3,1.43,1.43,0,0,1,.85.85,5.35,5.35,0,0,0,3,3.4,5.19,5.19,0,0,0,4.35-.35,1.38,1.38,0,0,1,1.25,0,5.91,5.91,0,0,0,2.65.65,4.22,4.22,0,0,0,1.75-.35,5.32,5.32,0,0,0,2.9-3.35,1.35,1.35,0,0,1,.9-0.9,5.25,5.25,0,0,0,3.35-2.85,4.62,4.62,0,0,0-.4-4,1.5,1.5,0,0,1,0-1.45A4.9,4.9,0,0,0,91.65,214.25Z" transform="translate(-0.2 -0.46)"/><path class="gr-d" d="M84.85,225.81a0.61,0.61,0,0,0,.75-0.1,8.67,8.67,0,0,0-3.25-12.91,8.25,8.25,0,0,0-5.66-.55,7.29,7.29,0,0,0-1.15,13.61,6.66,6.66,0,0,0,2.75.6,5,5,0,0,0,2.1-.45c2.1-1,3.15-3.15,3.7-4.86a0.52,0.52,0,1,0-1-.3c-0.45,1.5-1.4,3.45-3.1,4.2a4.78,4.78,0,0,1-4-.2,6.26,6.26,0,0,1,1-11.66,7,7,0,0,1,4.91.5,7.62,7.62,0,0,1,2.8,11.36A0.56,0.56,0,0,0,84.85,225.81Z" transform="translate(-0.2 -0.46)"/><path class="gr-d" d="M74,238.52l0.6,0.85,0.35-1a26.62,26.62,0,0,1,3-6,0.54,0.54,0,0,0-.9-0.6A28.51,28.51,0,0,0,74.33,237c-0.65-1.1-1.45-2.45-2.5-2.75s-2.2.35-3.25,1l2.85-5.61a0.53,0.53,0,0,0-1-.45l-4.4,8.66,1.4-.7c0.3-.15.65-0.4,1.1-0.65,0.9-.55,2.25-1.4,3-1.25s1.35,1.4,1.85,2.25A7,7,0,0,0,74,238.52Z" transform="translate(-0.2 -0.46)"/><path class="gr-d" d="M91,234.32h1.1l1-.05-0.65-.8a29.27,29.27,0,0,1-3.55-5.66,0.53,0.53,0,1,0-1,.45,27.64,27.64,0,0,0,3,5c-1.25,0-2.85-.05-3.65.7s-0.8,2.05-.8,3.3L83.14,232a0.54,0.54,0,0,0-.9.6l5.11,8.21,0.15-1.55a10.35,10.35,0,0,0,0-1.25c0-1.05-.05-2.7.5-3.2S90,234.32,91,234.32Z" transform="translate(-0.2 -0.46)"/><path class="gr-d" d="M104.32,143.52v1.1a6.77,6.77,0,0,1,4.61,6.46v9.51a6.81,6.81,0,0,1-6.81,6.81H92.6a4.43,4.43,0,0,1-3.85-1.7c-2-2.7-1-8-.1-10.71a0.52,0.52,0,1,0-1-.3c-0.25.8-2.45,7.91,0.25,11.66a5.52,5.52,0,0,0,4.71,2.15h9.51a7.87,7.87,0,0,0,7.86-7.86v-9.51A7.88,7.88,0,0,0,104.32,143.52Z" transform="translate(-0.2 -0.46)"/><path class="gr-d" d="M84.7,151.08v7.61a0.55,0.55,0,1,0,1.1,0v-7.61a6.86,6.86,0,0,1,5.51-6.71v-1.05A7.9,7.9,0,0,0,84.7,151.08Z" transform="translate(-0.2 -0.46)"/><path class="gr-d" d="M102.12,143.22H92.35v1.05h9.76a8.94,8.94,0,0,1,1.15.1v-1.05A4.48,4.48,0,0,0,102.12,143.22Z" transform="translate(-0.2 -0.46)"/><path class="gr-d" d="M104.32,141.72c0-4-2.35-6.26-6.51-6.26s-6.51,2.3-6.51,6.26V147a0.55,0.55,0,0,0,1.1,0v-5.26c0-4.3,3-5.21,5.46-5.21s5.46,0.9,5.46,5.21v5.21a0.55,0.55,0,0,0,1.1,0v-5.21h-0.1Z" transform="translate(-0.2 -0.46)"/><path class="gr-d" d="M134.3,95.57c0.65-.5,2,0.35,3.35,2.25l3.4,4.66a0.49,0.49,0,0,0,.45.2,0.71,0.71,0,0,0,.3-0.1,0.5,0.5,0,0,0,.1-0.75l-3.4-4.66c-2.55-3.4-4.1-3-4.86-2.45a2,2,0,0,0-.65,2.1,8.48,8.48,0,0,0,1.65,3.2l1.6,2.15a0.54,0.54,0,0,0,.85-0.65l-1.6-2.15a7.55,7.55,0,0,1-1.5-2.8A0.9,0.9,0,0,1,134.3,95.57Z" transform="translate(-0.2 -0.46)"/><path class="gr-d" d="M154.77,99.47l-1.6,2.15a0.54,0.54,0,0,0,.85.65l1.6-2.15a8.11,8.11,0,0,0,1.65-3.2,2,2,0,0,0-.65-2.1c-0.7-.55-2.3-1-4.86,2.45l-3.4,4.66a0.61,0.61,0,0,0,.1.75,0.71,0.71,0,0,0,.3.1,0.61,0.61,0,0,0,.45-0.2l3.4-4.61c1.45-1.9,2.7-2.75,3.35-2.25a0.93,0.93,0,0,1,.25,1.05A7.38,7.38,0,0,1,154.77,99.47Z" transform="translate(-0.2 -0.46)"/><path class="gr-d" d="M137.7,107.28c5.51-.2,11.06-0.25,16.57-0.15h0.25c1,0,1.8.05,2.1,0.9a0.52,0.52,0,0,0,1-.3c-0.55-1.65-2.2-1.65-3.1-1.65h-0.25c-5.51-.1-11.11-0.05-16.62.15a5,5,0,0,0-4.2,2c-1.2,1.8-2.25,5.76-1,8.21a4,4,0,0,0,3.85,2.05h17.52a6,6,0,0,0,6.06-6.06v-4.76c0-4.2-4.4-4.2-6.06-4.2H136.3c-1.65,0-6.06,0-6.06,4.2V111a0.55,0.55,0,1,0,1.1,0v-3.3c0-2.25,1.45-3.15,5-3.15h17.52c3.55,0,5,.9,5,3.15v4.76a5,5,0,0,1-5,5H136.35a3,3,0,0,1-2.9-1.5c-1.05-2-.15-5.51.9-7.11A3.94,3.94,0,0,1,137.7,107.28Z" transform="translate(-0.2 -0.46)"/><path class="gr-d" d="M86,69.79a0.53,0.53,0,0,0-.15-1.05,3.46,3.46,0,0,0-2.9,3.7,3,3,0,0,0,3,2.9H86a2.85,2.85,0,0,0,2.6-1.65,2.28,2.28,0,0,0-.1-1.8,2.06,2.06,0,0,0-1.15-1.1,2,2,0,0,0-1.8.35,1.73,1.73,0,0,0-.7,1.5,0.55,0.55,0,0,0,1.1-.1,0.7,0.7,0,0,1,.3-0.6,1,1,0,0,1,.8-0.2,0.86,0.86,0,0,1,.55.55,1.26,1.26,0,0,1,.05,1,1.76,1.76,0,0,1-1.6,1,2,2,0,0,1-2-1.85A2.29,2.29,0,0,1,86,69.79Z" transform="translate(-0.2 -0.46)"/><path class="gr-d" d="M77.69,63.78a3.73,3.73,0,0,0-3.3-.25c-1,.55-1.65,1.8-2,3.8-0.55,3.05-.25,5.11.85,6.31a3.84,3.84,0,0,0,3,1.1c0.35,0,.65-0.05.9-0.05a6.51,6.51,0,0,0,3.65-1.3,1.28,1.28,0,0,0,.35-1.3,1.25,1.25,0,0,0-1.05-.85,3.42,3.42,0,0,1-1.7-.5,1.93,1.93,0,0,1-.9-1.45,0.71,0.71,0,0,1,.2-0.55,1.38,1.38,0,0,1,1.05-.2,2.56,2.56,0,0,1,1.55,1.1,0.52,0.52,0,0,0,.9-0.5,3.48,3.48,0,0,0-2.25-1.65,2.35,2.35,0,0,0-2,.4,1.66,1.66,0,0,0-.6,1.4,3.25,3.25,0,0,0,1.4,2.3,5.2,5.2,0,0,0,2.15.65,0.17,0.17,0,0,1,.15.1,0.17,0.17,0,0,1-.05.2,5.77,5.77,0,0,1-3.05,1,3.42,3.42,0,0,1-3-.75c-0.85-.9-1.05-2.75-0.6-5.41,0.3-1.65.8-2.7,1.5-3.05a2.92,2.92,0,0,1,2.4.3,17.44,17.44,0,0,1,5.81,4.15,0.53,0.53,0,0,0,.8-0.7A20,20,0,0,0,77.69,63.78Z" transform="translate(-0.2 -0.46)"/><path class="gr-d" d="M99.31,67.39c-0.35-2-1-3.25-2-3.8a3.73,3.73,0,0,0-3.3.25,19.26,19.26,0,0,0-6.21,4.4,0.53,0.53,0,1,0,.8.7,18.28,18.28,0,0,1,5.86-4.15,2.89,2.89,0,0,1,2.4-.3c0.7,0.4,1.2,1.4,1.5,3.05,0.45,2.7.25,4.5-.55,5.41a3.51,3.51,0,0,1-3,.75,5.77,5.77,0,0,1-3.05-1,0.16,0.16,0,0,1-.05-0.2,0.13,0.13,0,0,1,.15-0.1A3.92,3.92,0,0,0,94,71.74a3.25,3.25,0,0,0,1.4-2.3,1.55,1.55,0,0,0-.6-1.4,2.35,2.35,0,0,0-2-.4,3.48,3.48,0,0,0-2.25,1.65,0.52,0.52,0,0,0,.9.5,2.22,2.22,0,0,1,1.55-1.1,1.17,1.17,0,0,1,1.05.2,0.62,0.62,0,0,1,.2.55,2.27,2.27,0,0,1-.9,1.45,4.58,4.58,0,0,1-1.7.5,1.24,1.24,0,0,0-.7,2.15,6.77,6.77,0,0,0,3.65,1.3c0.25,0,.55.05,0.9,0.05a4.1,4.1,0,0,0,3-1.1C99.56,72.49,99.86,70.44,99.31,67.39Z" transform="translate(-0.2 -0.46)"/><path class="gr-d" d="M99.36,90.41V83.1c0-3.4-3.85-6.16-8.56-6.16H80.39c-2.75,0-4.66.8-5.71,2.45-2,3.1.1,7.81,0.35,8.36a0.53,0.53,0,1,0,1-.45c-0.8-1.7-1.8-5.21-.45-7.31q1.28-2,4.81-2H90.75c4.1,0,7.51,2.3,7.51,5.11v7.31c0,2.8-3.35,5.11-7.51,5.11H80.34c-4.1,0-7.51-2.3-7.51-5.11V84.66a0.55,0.55,0,0,0-1.1,0v5.81c0,3.4,3.85,6.16,8.56,6.16H90.7C95.51,96.57,99.36,93.77,99.36,90.41Z" transform="translate(-0.2 -0.46)"/><path class="gr-d" d="M84.7,80.25a1.41,1.41,0,0,1,1.05-.5,0.69,0.69,0,0,1,.6.2,0.53,0.53,0,0,0,.75-0.75,2,2,0,0,0-1.4-.55,2.43,2.43,0,0,0-1.8.9A4.56,4.56,0,0,0,83,82.4a43.48,43.48,0,0,0,.1,7.21c0.1,1.15.25,3,1,3.9a2,2,0,0,0,1.6.85H85.8a2.8,2.8,0,0,0,2.1-1.3c0.45-.6.45-2.3,0.4-6.06,0-1.3-.05-2.6,0-3.65a0.53,0.53,0,1,0-1.05-.05c-0.05,1.05,0,2.4,0,3.7,0.05,2,.1,5-0.2,5.41a1.89,1.89,0,0,1-1.3.85,1,1,0,0,1-.8-0.45c-0.55-.7-0.7-2.4-0.8-3.4a46.12,46.12,0,0,1-.05-7A3.92,3.92,0,0,1,84.7,80.25Z" transform="translate(-0.2 -0.46)"/><path class="gr-d" d="M24.63,230.87L23,233a0.54,0.54,0,1,0,.85.65l1.6-2.15a8.11,8.11,0,0,0,1.65-3.2,2,2,0,0,0-.65-2.1c-0.7-.55-2.3-1-4.86,2.45l-3.4,4.66a0.61,0.61,0,0,0,.1.75,0.71,0.71,0,0,0,.3.1,0.61,0.61,0,0,0,.45-0.2l3.4-4.61c1.45-1.9,2.7-2.75,3.35-2.25a0.93,0.93,0,0,1,.25,1.05A7.38,7.38,0,0,1,24.63,230.87Z" transform="translate(-0.2 -0.46)"/><path class="gr-d" d="M24.13,238.52h0.25c1,0,1.8.05,2.1,0.9a0.52,0.52,0,1,0,1-.3c-0.55-1.65-2.2-1.65-3.1-1.65H24.13c-3.15-.05-6.36-0.05-9.56,0v1.05C17.82,238.47,21,238.47,24.13,238.52Z" transform="translate(-0.2 -0.46)"/><path class="gr-d" d="M23.73,249.89a6,6,0,0,0,6.06-6.06v-4.76c0-4.2-4.4-4.2-6.06-4.2H14.62v1.05h9.11c3.55,0,5,.9,5,3.15v4.76a5,5,0,0,1-5,5H14.62v1.05h9.11Z" transform="translate(-0.2 -0.46)"/><path class="gr-d" d="M4.16,227c0.65-.5,2,0.35,3.35,2.25l3.4,4.66a0.49,0.49,0,0,0,.45.2,0.71,0.71,0,0,0,.3-0.1,0.5,0.5,0,0,0,.1-0.75l-3.4-4.66c-2.55-3.4-4.1-3-4.86-2.45a2,2,0,0,0-.65,2.1,8.48,8.48,0,0,0,1.65,3.2l1.6,2.15A0.54,0.54,0,1,0,7,232.92l-1.6-2.15a7.55,7.55,0,0,1-1.5-2.8A0.9,0.9,0,0,1,4.16,227Z" transform="translate(-0.2 -0.46)"/><path class="gr-d" d="M7.56,238.67c2.35-.1,4.71-0.1,7.06-0.15v-1.05l-7.06.15a5,5,0,0,0-4.2,2c-1.2,1.8-2.25,5.76-1,8.21a4,4,0,0,0,3.85,2.05h8.41v-1.05H6.26a3,3,0,0,1-2.9-1.5c-1.05-2-.15-5.51.9-7.11A3.78,3.78,0,0,1,7.56,238.67Z" transform="translate(-0.2 -0.46)"/><path class="gr-d" d="M6.26,234.82c-1.65,0-6.06,0-6.06,4.2v3.3a0.56,0.56,0,0,0,.55.55,0.56,0.56,0,0,0,.55-0.55V239c0-2.25,1.45-3.15,5-3.15h8.31v-1.05H6.26Z" transform="translate(-0.2 -0.46)"/><path class="gr-d" d="M216.09,206.79h0a2.75,2.75,0,0,0,2.6-1.65,2.28,2.28,0,0,0-.1-1.8,2.06,2.06,0,0,0-1.15-1.1,2,2,0,0,0-1.8.35,1.73,1.73,0,0,0-.7,1.5,0.55,0.55,0,1,0,1.1-.1,0.7,0.7,0,0,1,.3-0.6,1,1,0,0,1,.8-0.2,0.86,0.86,0,0,1,.55.55,1.26,1.26,0,0,1,.05,1,1.76,1.76,0,0,1-1.6,1,2,2,0,0,1-2-1.85,2.42,2.42,0,0,1,2-2.65,0.53,0.53,0,0,0-.15-1.05,3.46,3.46,0,0,0-2.9,3.7A3,3,0,0,0,216.09,206.79Z" transform="translate(-0.2 -0.46)"/><path class="gr-d" d="M205,195.88a2.92,2.92,0,0,1,2.4.3,17.44,17.44,0,0,1,5.81,4.15,0.53,0.53,0,1,0,.8-0.7,18.73,18.73,0,0,0-6.21-4.4,3.73,3.73,0,0,0-3.3-.25c-1,.55-1.65,1.8-2,3.8-0.55,3.05-.25,5.11.85,6.31a3.84,3.84,0,0,0,3,1.1c0.35,0,.65-0.05.9-0.05a6.51,6.51,0,0,0,3.65-1.3,1.28,1.28,0,0,0,.35-1.3,1.25,1.25,0,0,0-1.05-.85,3.42,3.42,0,0,1-1.7-.5,1.93,1.93,0,0,1-.9-1.45,0.71,0.71,0,0,1,.2-0.55,1.38,1.38,0,0,1,1.05-.2,2.56,2.56,0,0,1,1.55,1.1,0.52,0.52,0,1,0,.9-0.5,3.48,3.48,0,0,0-2.25-1.65,2.35,2.35,0,0,0-2,.4,1.66,1.66,0,0,0-.6,1.4,3.25,3.25,0,0,0,1.4,2.3,5.2,5.2,0,0,0,2.15.65,0.17,0.17,0,0,1,.15.1,0.17,0.17,0,0,1-.05.2,5.77,5.77,0,0,1-3.05,1,3.42,3.42,0,0,1-3-.75c-0.85-.9-1.05-2.75-0.6-5.41C203.83,197.33,204.33,196.28,205,195.88Z" transform="translate(-0.2 -0.46)"/><path class="gr-d" d="M227.45,195a3.73,3.73,0,0,0-3.3.25,19.26,19.26,0,0,0-6.21,4.4,0.53,0.53,0,0,0,.8.7,18.28,18.28,0,0,1,5.86-4.15,2.89,2.89,0,0,1,2.4-.3c0.7,0.4,1.2,1.4,1.5,3.05,0.45,2.7.25,4.5-.55,5.41a3.51,3.51,0,0,1-3,.75,5.77,5.77,0,0,1-3.05-1,0.16,0.16,0,0,1-.05-0.2,0.13,0.13,0,0,1,.15-0.1,3.92,3.92,0,0,0,2.15-.65,3.25,3.25,0,0,0,1.4-2.3,1.55,1.55,0,0,0-.6-1.4,2.35,2.35,0,0,0-2-.4,3.48,3.48,0,0,0-2.25,1.65,0.52,0.52,0,0,0,.9.5,2.22,2.22,0,0,1,1.55-1.1,1.17,1.17,0,0,1,1.05.2,0.62,0.62,0,0,1,.2.55,2.27,2.27,0,0,1-.9,1.45,4.58,4.58,0,0,1-1.7.5,1.24,1.24,0,0,0-.7,2.15,6.77,6.77,0,0,0,3.65,1.3c0.25,0,.55.05,0.9,0.05a4.1,4.1,0,0,0,3-1.1c1.1-1.2,1.35-3.25.85-6.31C229.1,196.78,228.45,195.53,227.45,195Z" transform="translate(-0.2 -0.46)"/><path class="gr-d" d="M220.94,208.34H210.53c-2.75,0-4.66.8-5.71,2.45-2,3.1.1,7.81,0.35,8.36a0.53,0.53,0,0,0,1-.45c-0.8-1.7-1.8-5.21-.45-7.31q1.28-2,4.81-2h10.41c4.1,0,7.51,2.3,7.51,5.11v7.31c0,2.8-3.35,5.11-7.51,5.11H210.48c-4.1,0-7.51-2.3-7.51-5.11V216a0.55,0.55,0,0,0-1.1,0v5.81c0,3.4,3.85,6.16,8.56,6.16h10.41c4.71,0,8.56-2.75,8.56-6.16v-7.31C229.5,211.09,225.65,208.34,220.94,208.34Z" transform="translate(-0.2 -0.46)"/><path class="gr-d" d="M214.84,211.65a1.41,1.41,0,0,1,1.05-.5,0.69,0.69,0,0,1,.6.2,0.53,0.53,0,1,0,.75-0.75,2,2,0,0,0-1.4-.55,2.43,2.43,0,0,0-1.8.9,4.56,4.56,0,0,0-.85,2.85,43.48,43.48,0,0,0,.1,7.21c0.1,1.15.25,3,1,3.9a2,2,0,0,0,1.6.85h0.05a2.8,2.8,0,0,0,2.1-1.3c0.45-.6.45-2.3,0.4-6.06,0-1.3-.05-2.6,0-3.65a0.53,0.53,0,1,0-1.05-.05c-0.05,1.05,0,2.4,0,3.7,0.05,2,.1,5-0.2,5.41a1.89,1.89,0,0,1-1.3.85,1,1,0,0,1-.8-0.45c-0.55-.7-0.7-2.4-0.8-3.4a46.12,46.12,0,0,1-.05-7A3.92,3.92,0,0,1,214.84,211.65Z" transform="translate(-0.2 -0.46)"/><path class="gr-d" d="M198.17,91.46a4.19,4.19,0,0,1,.35-3.5,2.65,2.65,0,0,0,.05-2.3,4.55,4.55,0,0,1-.2-4.15,3.78,3.78,0,0,1,1-1.2V79.05a5.22,5.22,0,0,0-2,2,5.61,5.61,0,0,0,.2,5.11,1.44,1.44,0,0,1-.05,1.35,4.92,4.92,0,0,0,1.75,6.86V93A3.52,3.52,0,0,1,198.17,91.46Z" transform="translate(-0.2 -0.46)"/><path class="gr-d" d="M198.72,103.93l0.6-1.2v-2.35l-3.1,6.11,1.4-.7c0.3-.15.65-0.4,1.1-0.65,0.2-.1.4-0.25,0.6-0.35v-1.2A3.73,3.73,0,0,0,198.72,103.93Z" transform="translate(-0.2 -0.46)"/><path class="gr-d" d="M221.8,82.85a5.07,5.07,0,0,0-3.25-2.75,1.65,1.65,0,0,1-1-1,4.47,4.47,0,0,0-2.45-3,4.61,4.61,0,0,0-4,.35,1.54,1.54,0,0,1-1.4-.05,4.14,4.14,0,0,0-3.8-.25,5.75,5.75,0,0,0-3,4.1,0.54,0.54,0,1,0,1.05.25,4.86,4.86,0,0,1,2.35-3.4,3.09,3.09,0,0,1,2.85.25,2.71,2.71,0,0,0,2.4.05,3.66,3.66,0,0,1,3.1-.3,3.51,3.51,0,0,1,1.85,2.35,2.55,2.55,0,0,0,1.65,1.7,4.12,4.12,0,0,1,2.6,2.15,3.81,3.81,0,0,1-.35,3.15,2.65,2.65,0,0,0,0,2.45,3.66,3.66,0,0,1,.35,3.1,4.18,4.18,0,0,1-2.7,2.25,2.55,2.55,0,0,0-1.6,1.6,3.86,3.86,0,0,1-5.81,2.4,2.44,2.44,0,0,0-2.2,0,4.27,4.27,0,0,1-3.45.3,4.35,4.35,0,0,1-2.35-2.8,2.53,2.53,0,0,0-1.45-1.5,6.34,6.34,0,0,1-1.9-1.1v1.3a6.39,6.39,0,0,0,1.55.75,1.43,1.43,0,0,1,.85.85,5.35,5.35,0,0,0,3,3.4,5.19,5.19,0,0,0,4.35-.35,1.38,1.38,0,0,1,1.25,0,5.91,5.91,0,0,0,2.65.65,4.22,4.22,0,0,0,1.75-.35,5.32,5.32,0,0,0,2.9-3.35,1.35,1.35,0,0,1,.9-0.9,5.25,5.25,0,0,0,3.35-2.85,4.62,4.62,0,0,0-.4-4,1.5,1.5,0,0,1,0-1.45A4.77,4.77,0,0,0,221.8,82.85Z" transform="translate(-0.2 -0.46)"/><path class="gr-d" d="M202,79.25a0.53,0.53,0,1,0-.15-1.05,6.48,6.48,0,0,0-2.5.9v1.25A5.61,5.61,0,0,1,202,79.25Z" transform="translate(-0.2 -0.46)"/><path class="gr-d" d="M215,94.42a0.61,0.61,0,0,0,.75-0.1,8.67,8.67,0,0,0-3.25-12.91,8.25,8.25,0,0,0-5.66-.55,7.29,7.29,0,0,0-1.15,13.61,6.66,6.66,0,0,0,2.75.6,5,5,0,0,0,2.1-.45c2.1-1,3.15-3.15,3.7-4.86a0.52,0.52,0,0,0-1-.3c-0.45,1.5-1.4,3.45-3.1,4.2a4.78,4.78,0,0,1-4-.2,6.26,6.26,0,0,1,1-11.66,7,7,0,0,1,4.91.5,7.62,7.62,0,0,1,2.8,11.36A0.56,0.56,0,0,0,215,94.42Z" transform="translate(-0.2 -0.46)"/><path class="gr-d" d="M201.52,98.32a0.53,0.53,0,0,0-1-.45l-1.3,2.5v2.35Z" transform="translate(-0.2 -0.46)"/><path class="gr-d" d="M204.18,107.13l0.6,0.85,0.35-1a26.62,26.62,0,0,1,3-6,0.54,0.54,0,1,0-.9-0.6,28.51,28.51,0,0,0-2.75,5.16c-0.65-1.1-1.45-2.45-2.5-2.75a3.89,3.89,0,0,0-2.65.65v1.2a4.1,4.1,0,0,1,2.35-.85c0.65,0.2,1.35,1.4,1.85,2.25A7,7,0,0,0,204.18,107.13Z" transform="translate(-0.2 -0.46)"/><path class="gr-d" d="M221.09,102.93h1.1l1-.05-0.65-.8A29.27,29.27,0,0,1,219,96.42a0.53,0.53,0,0,0-1,.45,27.64,27.64,0,0,0,3,5c-1.25,0-2.85-.05-3.65.7s-0.8,2.05-.8,3.3l-3.3-5.31a0.54,0.54,0,1,0-.9.6l5.11,8.21,0.15-1.55a10.35,10.35,0,0,0,0-1.25c0-1.05-.05-2.7.5-3.2S220.09,102.93,221.09,102.93Z" transform="translate(-0.2 -0.46)"/><path class="gr-d" d="M232.81,148.63h-0.6a2.35,2.35,0,0,1-1.8-.65c-0.65-.65-1-1.9-0.85-3.6,0.15-2.7,1-3.9,2.75-3.9h6a0.82,0.82,0,0,1,.85.7,4.31,4.31,0,0,1,.05.8c0.15,2.1.35,5.66,6,5.56,3.55-.2,4-3.85,4.2-6l0.05-.35a0.82,0.82,0,0,1,.85-0.7h6.11c1.75,0,2.4,1,2.55,3.9,0.1,1.9-.15,3.05-0.75,3.7a2.16,2.16,0,0,1-1.65.6h-0.65a1.9,1.9,0,0,0-1.9,1.9v8.66a4.25,4.25,0,0,1-4.25,4.25h-10a3.44,3.44,0,0,1-3.5-2.3c-1.1-2.65-.1-6.86,1-8a0.53,0.53,0,0,0-.75-0.75c-1.4,1.35-2.55,6-1.25,9.11a4.52,4.52,0,0,0,4.5,3h10a5.31,5.31,0,0,0,5.31-5.31v-8.66a0.88,0.88,0,0,1,.85-0.85h0.6a3.29,3.29,0,0,0,2.45-.9c1.05-1.15,1.1-3.1,1.05-4.45-0.1-1.6-.25-4.91-3.6-4.91h-6.06a1.9,1.9,0,0,0-1.9,1.65l-0.05.4c-0.3,2.6-.75,5-3.2,5.11-4.61.05-4.76-2.4-4.91-4.61,0-.3-0.05-0.6-0.05-0.85a1.86,1.86,0,0,0-1.9-1.65h-6c-3.6,0-3.75,3.7-3.85,4.91a5.89,5.89,0,0,0,1.15,4.4,3.39,3.39,0,0,0,2.55,1h0.6a0.87,0.87,0,0,1,.85.8l-0.4,3.55a0.53,0.53,0,1,0,1.05.15l0.4-3.6A1.92,1.92,0,0,0,232.81,148.63Z" transform="translate(-0.2 -0.46)"/><path class="gr-d" d="M103.12,22.64a0.53,0.53,0,1,0,1.05.15l0.1-.9h-1.05Z" transform="translate(-0.2 -0.46)"/><path class="gr-d" d="M123.84,27.79A4.25,4.25,0,0,1,119.58,32h-10a3.44,3.44,0,0,1-3.5-2.3c-1.05-2.6-.15-6.66,1-7.86h-1.3a11,11,0,0,0-.65,8.26,4.52,4.52,0,0,0,4.5,3h10a5.31,5.31,0,0,0,5.31-5.31V21.89h-1.05v5.91h0Z" transform="translate(-0.2 -0.46)"/><path class="gr-d" d="M119.33,10.18l0.05-.35a0.82,0.82,0,0,1,.85-0.7h6a2,2,0,0,1,2.15,1.45h1.1a3.18,3.18,0,0,0-3.3-2.5h-6.06a1.9,1.9,0,0,0-1.9,1.65l-0.05.4c0,0.15-.05.35-0.05,0.5h1.05A2.36,2.36,0,0,0,119.33,10.18Z" transform="translate(-0.2 -0.46)"/><path class="gr-d" d="M108.22,8h-6a3.4,3.4,0,0,0-3.45,2.5h1.15a2.29,2.29,0,0,1,2.3-1.45h6a0.82,0.82,0,0,1,.85.7,3.79,3.79,0,0,1,.05.75h1.05c0-.3-0.05-0.6-0.05-0.85A1.94,1.94,0,0,0,108.22,8Z" transform="translate(-0.2 -0.46)"/><path class="gr-d" d="M109.12,10.63c0.15,2.1.35,5.66,6,5.56,3.35-.2,3.9-3.45,4.15-5.66h-1c-0.3,2.4-.85,4.45-3.15,4.61-4.61.05-4.76-2.4-4.91-4.61h-1.05v0.1Z" transform="translate(-0.2 -0.46)"/><path class="gr-d" d="M98.36,12.93a5.89,5.89,0,0,0,1.15,4.4,3.39,3.39,0,0,0,2.55,1h0.6a0.87,0.87,0,0,1,.85.8l-0.3,2.8h1.05l0.3-2.7a1.9,1.9,0,0,0-1.9-1.9h-0.6a2.35,2.35,0,0,1-1.8-.65c-0.65-.65-1-1.9-0.85-3.6a7.33,7.33,0,0,1,.45-2.4H98.71A6.87,6.87,0,0,0,98.36,12.93Z" transform="translate(-0.2 -0.46)"/><path class="gr-d" d="M128.79,13c0.1,1.9-.15,3.05-0.75,3.7a2.16,2.16,0,0,1-1.65.6h-0.65a1.9,1.9,0,0,0-1.9,1.9v2.7h1.05v-2.7a0.88,0.88,0,0,1,.85-0.85h0.6a3.29,3.29,0,0,0,2.45-.9c1.05-1.15,1.1-3.1,1.05-4.45a11.18,11.18,0,0,0-.3-2.35h-1.1A10.7,10.7,0,0,1,128.79,13Z" transform="translate(-0.2 -0.46)"/><path class="gr-d" d="M107.17,21.79a0.53,0.53,0,1,0-.75-0.75,4.16,4.16,0,0,0-.6.85h1.3C107.12,21.84,107.17,21.84,107.17,21.79Z" transform="translate(-0.2 -0.46)"/><path class="gr-d" d="M214.84,27.24a0.55,0.55,0,0,0,1.1,0V21.89h-1.1v5.36Z" transform="translate(-0.2 -0.46)"/><path class="gr-d" d="M239.06,29.2A6.81,6.81,0,0,1,232.26,36h-9.51a4.43,4.43,0,0,1-3.85-1.7c-2-2.7-1-8-.1-10.71a0.52,0.52,0,0,0-1-.3c-0.25.8-2.45,7.91,0.25,11.66a5.52,5.52,0,0,0,4.71,2.15h9.51a7.87,7.87,0,0,0,7.86-7.86V21.89h-1.05V29.2h0Z" transform="translate(-0.2 -0.46)"/><path class="gr-d" d="M222.5,10.33c0-4.3,3-5.21,5.46-5.21s5.46,0.9,5.46,5.21v0.25h1.05V10.33c0-4-2.35-6.26-6.51-6.26s-6.51,2.3-6.51,6.26v0.25h1.05V10.33Z" transform="translate(-0.2 -0.46)"/><path class="gr-d" d="M232.26,11.83H222.5v1.05h9.76a8.94,8.94,0,0,1,1.15.1V11.93A4.48,4.48,0,0,0,232.26,11.83Z" transform="translate(-0.2 -0.46)"/><path class="gr-d" d="M214.84,19.69v2.2h1.05v-2.2A6.86,6.86,0,0,1,221.4,13V11.93A7.9,7.9,0,0,0,214.84,19.69Z" transform="translate(-0.2 -0.46)"/><path class="gr-d" d="M239.06,19.69v2.2h1.05v-2.2a7.91,7.91,0,0,0-5.66-7.56v1.1A6.88,6.88,0,0,1,239.06,19.69Z" transform="translate(-0.2 -0.46)"/><path class="gr-d" d="M233.41,11.93v3.65a0.55,0.55,0,0,0,1.1,0v-5h-1.05v1.35h-0.05Z" transform="translate(-0.2 -0.46)"/><path class="gr-d" d="M221.4,13v2.6a0.55,0.55,0,0,0,1.1,0v-5h-1.05V13H221.4Z" transform="translate(-0.2 -0.46)"/></g><g id="green"><path class="grn" d="M156.19,242.48a0.51,0.51,0,0,0,.5.55h0a0.55,0.55,0,0,0,.55-0.5l0.1-3.05-1.05.15Z" transform="translate(-0.2 -0.46)"/><path class="grn" d="M157,234.17a0.49,0.49,0,0,0-.55.5l-0.15,3.85,1.05-.15,0.15-3.65A0.51,0.51,0,0,0,157,234.17Z" transform="translate(-0.2 -0.46)"/><path class="grn" d="M153.49,238.92a0.52,0.52,0,0,0-.45.6,0.53,0.53,0,0,0,.5.45h0.05l2.7-.35,1.05-.15,2.6-.35a0.53,0.53,0,1,0-.15-1.05l-2.4.3-1.05.15Z" transform="translate(-0.2 -0.46)"/><path class="grn" d="M153.34,244.58a7.3,7.3,0,0,0,3.5.9,7.58,7.58,0,0,0,4.76-1.7,7.42,7.42,0,0,0,2.15-8,5.83,5.83,0,0,0-3.3-3.55c-2.15-.85-4.45,0-6.06.85a0.52,0.52,0,1,0,.5.9c1.4-.75,3.4-1.45,5.16-0.75a4.89,4.89,0,0,1,2.65,3,6.25,6.25,0,0,1-8.91,7.56,6.93,6.93,0,0,1-3.1-3.8,7.59,7.59,0,0,1,.65-6.41,7.76,7.76,0,0,1,5.36-3.6,0.53,0.53,0,1,0-.15-1.05,8.89,8.89,0,0,0-6.11,4.1,8.71,8.71,0,0,0-.75,7.31A8.37,8.37,0,0,0,153.34,244.58Z" transform="translate(-0.2 -0.46)"/><path class="grn" d="M156.69,259.75h0c2.9,0,10.86-13.51,11.81-18.17,1.15-5.56-.2-11.06-3.3-14.07a12.07,12.07,0,0,0-8-3h-0.9a11.47,11.47,0,0,0-7.46,2.35c-3.9,3.25-4.76,9.56-3.85,14.37C145.93,246.23,154,259.7,156.69,259.75Zm-7.21-32a10.29,10.29,0,0,1,6.76-2.1h0.85a11.11,11.11,0,0,1,7.31,2.65c3.3,3.1,3.85,8.81,3,13.06-1.05,5.16-9,17.32-10.71,17.32v0C154.94,258.6,146.93,246,146,241,145.13,236.57,145.88,230.72,149.49,227.71Z" transform="translate(-0.2 -0.46)"/><path class="grn" d="M26.05,111.09a0.51,0.51,0,0,0,.5.55h0a0.55,0.55,0,0,0,.55-0.5l0.1-3.05-1.05.15Z" transform="translate(-0.2 -0.46)"/><path class="grn" d="M26.9,102.78a0.49,0.49,0,0,0-.55.5l-0.15,3.85,1.05-.15,0.15-3.65A0.51,0.51,0,0,0,26.9,102.78Z" transform="translate(-0.2 -0.46)"/><path class="grn" d="M23.35,107.53a0.52,0.52,0,0,0-.45.6,0.53,0.53,0,0,0,.5.45h0.05l2.7-.35,1.05-.15,2.6-.35a0.53,0.53,0,1,0-.15-1.05l-2.4.3-1.05.15Z" transform="translate(-0.2 -0.46)"/><path class="grn" d="M31.46,112.39a7.42,7.42,0,0,0,2.15-8,5.83,5.83,0,0,0-3.3-3.55c-2.15-.85-4.45,0-6.06.85a0.52,0.52,0,1,0,.5.9c1.4-.75,3.4-1.45,5.16-0.75a4.89,4.89,0,0,1,2.65,3,6.25,6.25,0,0,1-8.91,7.56,6.93,6.93,0,0,1-3.1-3.8,7.59,7.59,0,0,1,.65-6.41,7.76,7.76,0,0,1,5.36-3.6,0.53,0.53,0,1,0-.15-1.05,8.89,8.89,0,0,0-6.11,4.1,8.71,8.71,0,0,0-.75,7.31,8,8,0,0,0,3.6,4.35,7.3,7.3,0,0,0,3.5.9A7.74,7.74,0,0,0,31.46,112.39Z" transform="translate(-0.2 -0.46)"/><path class="grn" d="M26.55,128.35h0c2.9,0,10.86-13.51,11.81-18.17,1.15-5.56-.2-11.06-3.3-14.07a12.07,12.07,0,0,0-8-3h-0.9a11.47,11.47,0,0,0-7.46,2.35c-3.9,3.25-4.76,9.56-3.85,14.37C15.79,114.84,23.85,128.3,26.55,128.35Zm-7.21-32a10.29,10.29,0,0,1,6.76-2.1H27a11.11,11.11,0,0,1,7.31,2.65c3.3,3.1,3.85,8.81,3,13.06-1.05,5.16-9,17.32-10.71,17.32v0c-1.75-.05-9.76-12.66-10.71-17.62C15,105.18,15.74,99.32,19.34,96.32Z" transform="translate(-0.2 -0.46)"/><path class="grn" d="M141.83,197.78a3,3,0,0,0,2.15-.9,2.54,2.54,0,0,0,0-3.6,2.15,2.15,0,0,0-3.05,0,1.87,1.87,0,0,0,0,2.6,0.53,0.53,0,0,0,.75-0.75,0.79,0.79,0,0,1,0-1.1,1.06,1.06,0,0,1,1.55,0,1.45,1.45,0,0,1,0,2.1,2,2,0,0,1-2.85,0,2.63,2.63,0,0,1,0-3.75,0.53,0.53,0,0,0-.75-0.75,3.72,3.72,0,0,0,0,5.26A3.11,3.11,0,0,0,141.83,197.78Z" transform="translate(-0.2 -0.46)"/><path class="grn" d="M152.44,191.67a0.54,0.54,0,0,0-.75,0,3.72,3.72,0,0,0-1.1,2.6,3.64,3.64,0,0,0,1.1,2.6,3.08,3.08,0,0,0,2.15.9,3,3,0,0,0,2.15-.9,2.54,2.54,0,0,0,0-3.6,2.15,2.15,0,0,0-3.05,0,1.87,1.87,0,0,0,0,2.6,0.53,0.53,0,0,0,.75-0.75,0.79,0.79,0,0,1,0-1.1,1.06,1.06,0,0,1,1.55,0,1.45,1.45,0,0,1,0,2.1,2,2,0,0,1-2.85,0,2.66,2.66,0,0,1,0-3.7A0.5,0.5,0,0,0,152.44,191.67Z" transform="translate(-0.2 -0.46)"/><path class="grn" d="M138.67,177.41c-1.7-1.05-2.75-2.4-2.75-3.85,0-.6,1.75-1.35,5.06-1.8a8.49,8.49,0,0,0,.2-1.1c-3.2.4-6.31,1.2-6.31,2.9,0,1.85,1.25,3.55,3.3,4.81h0C138.32,178.06,138.47,177.76,138.67,177.41Z" transform="translate(-0.2 -0.46)"/><path class="grn" d="M147.48,171.4c7.56,0,11.56,1.25,11.56,2.2,0,3.25-5.31,6-11.56,6a18.84,18.84,0,0,1-7.91-1.65c-0.15.3-.35,0.65-0.5,1V179a19.18,19.18,0,0,0,8.41,1.75c7.06,0,12.61-3.1,12.61-7.06,0-3.1-10.51-3.25-12.61-3.25a47.55,47.55,0,0,0-5.21.25l-0.15,1.05A40.84,40.84,0,0,1,147.48,171.4Z" transform="translate(-0.2 -0.46)"/><path class="grn" d="M136.17,186.12c0.75,1.25,2.55,1.85,5.56,1.85H159.5a0.55,0.55,0,0,0,0-1.1H141.73c-2.55,0-4.15-.45-4.66-1.35-0.8-1.3.55-3.9,2-6.66v-0.05c0.15-.3.35-0.6,0.5-1a25.55,25.55,0,0,0,2.5-6.26,7.59,7.59,0,0,0,.15-1.05,5.44,5.44,0,0,0,.05-0.9c0-2.85-.75-4.81-2.2-5.86a5.28,5.28,0,0,0-4.4-.55,0.52,0.52,0,1,0,.3,1,4.27,4.27,0,0,1,3.45.4c1.15,0.85,1.75,2.5,1.75,5a6.71,6.71,0,0,1-.05,1,10.36,10.36,0,0,1-.2,1.1,25.48,25.48,0,0,1-2.3,5.61c-0.15.3-.35,0.65-0.5,1h0C136.52,181.56,135.07,184.27,136.17,186.12Z" transform="translate(-0.2 -0.46)"/><path class="grn" d="M14.09,62.23v3A2.55,2.55,0,0,0,14.09,62.23Z" transform="translate(-0.2 -0.46)"/><path class="grn" d="M22.3,60.28a0.54,0.54,0,0,0-.75,0,3.72,3.72,0,0,0-1.1,2.6,3.64,3.64,0,0,0,1.1,2.6,3.08,3.08,0,0,0,2.15.9,3,3,0,0,0,2.15-.9,2.54,2.54,0,0,0,0-3.6,2.15,2.15,0,0,0-3.05,0,1.87,1.87,0,0,0,0,2.6,0.53,0.53,0,0,0,.75-0.75,0.79,0.79,0,0,1,0-1.1,1.06,1.06,0,0,1,1.55,0,1.45,1.45,0,0,1,0,2.1,2,2,0,0,1-2.85,0,2.66,2.66,0,0,1,0-3.7A0.5,0.5,0,0,0,22.3,60.28Z" transform="translate(-0.2 -0.46)"/><path class="grn" d="M17.34,40c7.56,0,11.56,1.25,11.56,2.2,0,3.25-5.31,6-11.56,6A23.14,23.14,0,0,1,14.09,48v1.1a22.57,22.57,0,0,0,3.25.25c7.06,0,12.61-3.1,12.61-7.06C30,39.16,19.44,39,17.34,39c-0.6,0-1.8,0-3.25.1v1.05A32.33,32.33,0,0,1,17.34,40Z" transform="translate(-0.2 -0.46)"/><path class="grn" d="M29.4,56.58a0.55,0.55,0,1,0,0-1.1H14.09v1.05H29.4v0.05Z" transform="translate(-0.2 -0.46)"/><path class="grn" d="M13.84,65.54a1.33,1.33,0,0,0,.25-0.3v-3c-0.1-.1-0.15-0.2-0.25-0.3a2.15,2.15,0,0,0-3.05,0,1.87,1.87,0,0,0,0,2.6,0.53,0.53,0,0,0,.75-0.75,0.79,0.79,0,0,1,0-1.1,1.06,1.06,0,0,1,1.55,0,1.45,1.45,0,0,1,0,2.1,2,2,0,0,1-2.85,0,2.63,2.63,0,0,1,0-3.75,0.53,0.53,0,0,0-.75-0.75,3.72,3.72,0,0,0,0,5.26,3.08,3.08,0,0,0,2.15.9A3.6,3.6,0,0,0,13.84,65.54Z" transform="translate(-0.2 -0.46)"/><path class="grn" d="M14.09,40.11V39.06l-2,.15-0.15,1.05Z" transform="translate(-0.2 -0.46)"/><path class="grn" d="M8.53,46c-1.7-1.05-2.75-2.4-2.75-3.85,0-.6,1.75-1.35,5.06-1.8a8.49,8.49,0,0,0,.2-1.1c-3.2.4-6.31,1.2-6.31,2.9C4.73,44,6,45.71,8,47H8C8.18,46.67,8.33,46.36,8.53,46Z" transform="translate(-0.2 -0.46)"/><path class="grn" d="M9.43,46.57c-0.15.3-.35,0.65-0.5,1v0.05a16.86,16.86,0,0,0,5.16,1.5V48A18.9,18.9,0,0,1,9.43,46.57Z" transform="translate(-0.2 -0.46)"/><path class="grn" d="M10.83,40.41A25.48,25.48,0,0,1,8.53,46c-0.15.3-.35,0.65-0.5,1H8c-1.65,3.15-3.05,5.91-2,7.71,0.75,1.25,2.55,1.85,5.56,1.85h2.45V55.47H11.64C9.08,55.47,7.48,55,7,54.12c-0.8-1.3.55-3.9,2-6.66V47.42c0.15-.3.35-0.6,0.5-1A25.55,25.55,0,0,0,12,40.21a7.59,7.59,0,0,0,.15-1.05,5.44,5.44,0,0,0,.05-0.9c0-2.85-.75-4.81-2.2-5.86a5.28,5.28,0,0,0-4.4-.55,0.52,0.52,0,1,0,.3,1,4.27,4.27,0,0,1,3.45.4c1.15,0.85,1.75,2.5,1.75,5a6.71,6.71,0,0,1-.05,1A7.87,7.87,0,0,1,10.83,40.41Z" transform="translate(-0.2 -0.46)"/></g></svg>