<?xml version="1.0" encoding="UTF-8"?>
<!DOCTYPE svg PUBLIC "-//W3C//DTD SVG 1.1//EN" "http://www.w3.org/Graphics/SVG/1.1/DTD/svg11.dtd">
<svg version="1.1" xmlns="http://www.w3.org/2000/svg" xmlns:xlink="http://www.w3.org/1999/xlink" width="90" height="140"  xml:space="preserve">
    <defs>
        <filter id="outerShadowOn-outer" filterUnits="userSpaceOnUse">
            <feGaussianBlur stdDeviation="1.75" />
            <feOffset dx="0.1" dy="-0.1" result="blur" />
            <feFlood flood-color="rgb(0, 0, 0)" flood-opacity="0.5" />
            <feComposite in2="blur" operator="in" result="colorShadow" />
            <feComposite in="SourceGraphic" in2="colorShadow" operator="over" />
        </filter>
        <filter id="innerShadowLighter-inner" filterUnits="userSpaceOnUse">
            <feGaussianBlur in="SourceAlpha" stdDeviation="6.5" result="blur"/>
            <feOffset dx="0.1" dy="-0.1"/>
            <feComposite in2="SourceAlpha" operator="arithmetic" k2="-1.15" k3="1.15" result="shadowDiff"/>
            <feFlood flood-color="rgb(255, 255, 255)" flood-opacity="0.5"/>
            <feComposite in2="shadowDiff" operator="in"/>
            <feComposite in2="SourceGraphic" operator="over"/>
        </filter>
    </defs>
    <g filter="url(#outerShadowOn-outer)">
        <path id="button" stroke="none" fill="rgb(137, 137, 137)" filter="url(#innerShadowLighter-inner)" d="M 56,39 L 56,39 C 37.91,39 22.99,24.84 22.05,6.78 L 5,7 5,133 22,133 22,133 C 22,114.22 37.22,99 56,99 L 56,99 C 72.57,99 86,85.57 86,69 86,52.43 72.57,39 56,39 Z M 56,39" />
    </g>
    <path stroke="rgb(120, 120, 120)" stroke-miterlimit="4" fill="none" d="M 56,39 L 56,39 C 37.91,39 22.99,24.84 22.05,6.78 L 5,7 5,133 22,133 22,133 C 22,114.22 37.22,99 56,99 L 56,99 C 72.57,99 86,85.57 86,69 86,52.43 72.57,39 56,39 Z M 56,39" />
    <path id="cartShadow" stroke="none" fill="rgb(43, 43, 43)" d="M 65.45,73.34 L 51.7,73.31 C 51.37,73.31 51.08,73.1 50.99,72.78 L 46.83,59.3 43.95,59.29 43.95,60.04 C 43.95,60.46 43.61,60.79 43.2,60.79 42.97,60.79 42.76,60.69 42.62,60.52 42.51,60.39 42.45,60.22 42.45,60.04 L 42.45,58.54 C 42.45,58.34 42.53,58.15 42.67,58.01 42.81,57.87 43,57.79 43.2,57.79 L 47.39,57.8 C 47.72,57.8 48.01,58.02 48.1,58.33 L 49.49,62.85 68.8,62.85 C 69.05,62.85 69.28,62.97 69.42,63.17 69.56,63.37 69.59,63.63 69.51,63.86 L 66.16,72.85 C 66.05,73.14 65.77,73.34 65.45,73.34 Z M 52.26,71.81 L 64.93,71.84 67.72,64.35 49.96,64.35 52.26,71.81 Z M 54.96,79.19 C 53.84,79.19 52.93,78.28 52.93,77.16 52.93,76.62 53.15,76.11 53.53,75.73 53.91,75.35 54.42,75.14 54.96,75.14 56.08,75.14 56.99,76.05 56.99,77.17 L 56.49,77.17 56.99,77.17 C 56.99,77.71 56.78,78.22 56.39,78.6 56.01,78.98 55.5,79.19 54.96,79.19 Z M 54.96,76.14 C 54.69,76.14 54.43,76.24 54.24,76.44 54.04,76.63 53.93,76.89 53.93,77.16 53.93,77.73 54.39,78.19 54.96,78.19 55.23,78.19 55.49,78.09 55.69,77.89 55.88,77.7 55.99,77.44 55.99,77.17 55.99,76.6 55.53,76.14 54.96,76.14 L 54.96,76.14 Z M 62.18,79.21 C 61.64,79.21 61.13,78.99 60.74,78.61 60.36,78.23 60.15,77.72 60.15,77.17 60.16,76.06 61.07,75.15 62.18,75.15 63.3,75.15 64.21,76.06 64.21,77.18 64.21,77.72 64,78.23 63.61,78.62 63.23,79 62.72,79.21 62.18,79.21 Z M 62.18,76.15 C 61.62,76.15 61.15,76.61 61.15,77.18 61.15,77.45 61.26,77.71 61.45,77.9 61.65,78.1 61.91,78.21 62.18,78.21 62.46,78.21 62.71,78.1 62.91,77.91 63.1,77.71 63.21,77.46 63.21,77.18 63.21,76.9 63.1,76.64 62.91,76.45 62.72,76.27 62.47,76.15 62.19,76.15 L 62.18,76.15 Z M 62.18,76.15" />
    <path id="cart" stroke="none" fill="rgb(217, 217, 217)" d="M 65.45,74.34 L 51.7,74.31 C 51.37,74.31 51.08,74.1 50.99,73.78 L 46.83,60.3 43.95,60.29 43.95,61.04 C 43.95,61.46 43.61,61.79 43.2,61.79 42.97,61.79 42.76,61.69 42.62,61.52 42.51,61.39 42.45,61.22 42.45,61.04 L 42.45,59.54 C 42.45,59.34 42.53,59.15 42.67,59.01 42.81,58.87 43,58.79 43.2,58.79 L 47.39,58.8 C 47.72,58.8 48.01,59.02 48.1,59.33 L 49.49,63.85 68.8,63.85 C 69.05,63.85 69.28,63.97 69.42,64.17 69.56,64.37 69.59,64.63 69.51,64.86 L 66.16,73.85 C 66.05,74.14 65.77,74.34 65.45,74.34 Z M 52.26,72.81 L 64.93,72.84 67.72,65.35 49.96,65.35 52.26,72.81 Z M 54.96,80.19 C 53.84,80.19 52.93,79.28 52.93,78.16 52.93,77.62 53.15,77.11 53.53,76.73 53.91,76.35 54.42,76.14 54.96,76.14 56.08,76.14 56.99,77.05 56.99,78.17 L 56.49,78.17 56.99,78.17 C 56.99,78.71 56.78,79.22 56.39,79.6 56.01,79.98 55.5,80.19 54.96,80.19 Z M 54.96,77.14 C 54.69,77.14 54.43,77.24 54.24,77.44 54.04,77.63 53.93,77.89 53.93,78.16 53.93,78.73 54.39,79.19 54.96,79.19 55.23,79.19 55.49,79.09 55.69,78.89 55.88,78.7 55.99,78.44 55.99,78.17 55.99,77.6 55.53,77.14 54.96,77.14 L 54.96,77.14 Z M 62.18,80.21 C 61.64,80.21 61.13,79.99 60.74,79.61 60.36,79.23 60.15,78.72 60.15,78.17 60.16,77.06 61.07,76.15 62.18,76.15 63.3,76.15 64.21,77.06 64.21,78.18 64.21,78.72 64,79.23 63.61,79.62 63.23,80 62.72,80.21 62.18,80.21 Z M 62.18,77.15 C 61.62,77.15 61.15,77.61 61.15,78.18 61.15,78.45 61.26,78.71 61.45,78.9 61.65,79.1 61.91,79.21 62.18,79.21 62.46,79.21 62.71,79.1 62.91,78.91 63.1,78.71 63.21,78.46 63.21,78.18 63.21,77.9 63.1,77.64 62.91,77.45 62.72,77.27 62.47,77.15 62.19,77.15 L 62.18,77.15 Z M 62.18,77.15" />
</svg>
