<?xml version="1.0" encoding="UTF-8"?>
<!DOCTYPE svg PUBLIC "-//W3C//DTD SVG 1.1//EN" "http://www.w3.org/Graphics/SVG/1.1/DTD/svg11.dtd">
<svg version="1.1" xmlns="http://www.w3.org/2000/svg" xmlns:xlink="http://www.w3.org/1999/xlink" viewBox="0 0 30 25">
    <g id="group2">
        <path id="bezier2" stroke="none" fill="rgb(85, 85, 85)" d="M 24.45,17.34 L 24.45,17.34 10.7,17.31 C 10.37,17.31 10.08,17.1 9.99,16.78 L 5.83,3.3 2.95,3.29 2.95,4.04 C 2.95,4.46 2.61,4.79 2.2,4.79 L 2.2,4.79 C 1.78,4.79 1.45,4.46 1.45,4.04 L 1.45,2.54 C 1.45,2.34 1.53,2.15 1.67,2.01 1.81,1.87 2,1.79 2.2,1.79 L 2.2,1.79 6.39,1.8 C 6.72,1.8 7.01,2.02 7.1,2.33 L 8.49,6.85 27.8,6.85 C 28.05,6.85 28.28,6.97 28.42,7.17 28.56,7.37 28.59,7.63 28.51,7.86 L 25.16,16.85 C 25.05,17.14 24.77,17.34 24.45,17.34 Z M 11.26,15.81 L 23.93,15.84 26.72,8.35 8.96,8.35 11.26,15.81 Z M 11.26,15.81" />
        <path id="bezier6" stroke="none" fill="rgb(85, 85, 85)" d="M 13.96,23.19 L 13.96,23.19 C 12.84,23.19 11.93,22.28 11.93,21.16 11.93,20.62 12.15,20.11 12.53,19.73 12.91,19.35 13.42,19.14 13.96,19.14 13.96,19.14 13.96,19.14 13.97,19.14 15.08,19.14 15.99,20.05 15.99,21.17 L 15.49,21.17 15.99,21.17 C 15.99,21.71 15.78,22.22 15.39,22.6 15.01,22.98 14.5,23.19 13.96,23.19 Z M 13.96,20.14 C 13.69,20.14 13.43,20.24 13.24,20.44 13.04,20.63 12.93,20.89 12.93,21.16 12.93,21.73 13.39,22.19 13.96,22.19 L 13.96,22.19 C 14.23,22.19 14.49,22.09 14.69,21.89 14.88,21.7 14.99,21.44 14.99,21.17 14.99,20.6 14.53,20.14 13.96,20.14 13.96,20.14 13.96,20.14 13.96,20.14 Z M 13.96,20.14" />
        <path id="bezier7" stroke="none" fill="rgb(85, 85, 85)" d="M 21.18,23.21 C 21.18,23.21 21.18,23.21 21.18,23.21 20.64,23.21 20.13,22.99 19.74,22.61 19.36,22.23 19.15,21.72 19.15,21.17 19.16,20.06 20.07,19.15 21.18,19.15 L 21.19,19.15 C 22.3,19.15 23.21,20.06 23.21,21.18 L 23.21,21.18 C 23.21,21.72 23,22.23 22.61,22.62 22.23,23 21.72,23.21 21.18,23.21 Z M 21.18,20.15 C 20.62,20.15 20.15,20.61 20.15,21.18 20.15,21.45 20.26,21.71 20.45,21.9 20.65,22.1 20.91,22.21 21.18,22.21 L 21.18,22.21 C 21.46,22.21 21.71,22.1 21.91,21.91 22.1,21.71 22.21,21.46 22.21,21.18 22.21,20.61 21.75,20.15 21.19,20.15 L 21.18,20.15 Z M 22.71,21.18 L 22.72,21.18 22.71,21.18 Z M 22.71,21.18" />
    </g>
    <g id="group">
        <path id="bezier3" stroke="none" fill="rgb(255, 255, 255)" d="M 24.45,18.34 L 24.45,18.34 10.7,18.31 C 10.37,18.31 10.08,18.1 9.99,17.78 L 5.83,4.3 2.95,4.29 2.95,5.04 C 2.95,5.46 2.61,5.79 2.2,5.79 L 2.2,5.79 C 1.78,5.79 1.45,5.46 1.45,5.04 L 1.45,3.54 C 1.45,3.34 1.53,3.15 1.67,3.01 1.81,2.87 2,2.79 2.2,2.79 L 2.2,2.79 6.39,2.8 C 6.72,2.8 7.01,3.02 7.1,3.33 L 8.49,7.85 27.8,7.85 C 28.05,7.85 28.28,7.97 28.42,8.17 28.56,8.37 28.59,8.63 28.51,8.86 L 25.16,17.85 C 25.05,18.14 24.77,18.34 24.45,18.34 Z M 11.26,16.81 L 23.93,16.84 26.72,9.35 8.96,9.35 11.26,16.81 Z M 11.26,16.81" />
        <path id="bezier4" stroke="none" fill="rgb(255, 255, 255)" d="M 13.96,24.19 L 13.96,24.19 C 12.84,24.19 11.93,23.28 11.93,22.16 11.93,21.62 12.15,21.11 12.53,20.73 12.91,20.35 13.42,20.14 13.96,20.14 13.96,20.14 13.96,20.14 13.97,20.14 15.08,20.14 15.99,21.05 15.99,22.17 L 15.49,22.17 15.99,22.17 C 15.99,22.71 15.78,23.22 15.39,23.6 15.01,23.98 14.5,24.19 13.96,24.19 Z M 13.96,21.14 C 13.69,21.14 13.43,21.24 13.24,21.44 13.04,21.63 12.93,21.89 12.93,22.16 12.93,22.73 13.39,23.19 13.96,23.19 L 13.96,23.19 C 14.23,23.19 14.49,23.09 14.69,22.89 14.88,22.7 14.99,22.44 14.99,22.17 14.99,21.6 14.53,21.14 13.96,21.14 13.96,21.14 13.96,21.14 13.96,21.14 Z M 13.96,21.14" />
        <path id="bezier5" stroke="none" fill="rgb(255, 255, 255)" d="M 21.18,24.21 C 21.18,24.21 21.18,24.21 21.18,24.21 20.64,24.21 20.13,23.99 19.74,23.61 19.36,23.23 19.15,22.72 19.15,22.17 19.16,21.06 20.07,20.15 21.18,20.15 L 21.19,20.15 C 22.3,20.15 23.21,21.06 23.21,22.18 L 23.21,22.18 C 23.21,22.72 23,23.23 22.61,23.62 22.23,24 21.72,24.21 21.18,24.21 Z M 21.18,21.15 C 20.62,21.15 20.15,21.61 20.15,22.18 20.15,22.45 20.26,22.71 20.45,22.9 20.65,23.1 20.91,23.21 21.18,23.21 L 21.18,23.21 C 21.46,23.21 21.71,23.1 21.91,22.91 22.1,22.71 22.21,22.46 22.21,22.18 22.21,21.61 21.75,21.15 21.19,21.15 L 21.18,21.15 Z M 22.71,22.18 L 22.72,22.18 22.71,22.18 Z M 22.71,22.18" />
    </g>
</svg>
