<svg id="icn_plane" xmlns="http://www.w3.org/2000/svg" viewBox="0 0 280.88 280.87"><title>icn_plane</title><path id="icn_plane-2" data-name="icn_plane" d="M283.72,11.27a9.79,9.79,0,0,1,4.23,10L247.82,262a9.89,9.89,0,0,1-5,7.05,9.63,9.63,0,0,1-4.86,1.26,10.53,10.53,0,0,1-3.76-.78l-71-29-37.93,46.24a9.23,9.23,0,0,1-7.68,3.6,8.49,8.49,0,0,1-3.45-.63,10,10,0,0,1-6.58-9.4v-54.7L243,59.7l-167.55,145L13.5,179.29q-5.8-2.19-6.27-8.62a9.29,9.29,0,0,1,5-9.25L273.06,11a9.58,9.58,0,0,1,5-1.41A9.74,9.74,0,0,1,283.72,11.27Z" transform="translate(-7.21 -9.55)"/></svg>