<svg id="icn_mstrcrd" xmlns="http://www.w3.org/2000/svg" viewBox="0 0 296.23 197.49"><title>icn_mstrcrd</title><path id="icn_mstrcrd-2" data-name="icn_mstrcrd" d="M298.2,67.7V232.27a16.68,16.68,0,0,1-16.46,16.46H18.43a15.82,15.82,0,0,1-11.57-4.89A15.81,15.81,0,0,1,2,232.27V67.7A15.81,15.81,0,0,1,6.86,56.12a15.82,15.82,0,0,1,11.57-4.89H281.75A16.68,16.68,0,0,1,298.2,67.7ZM257.64,185.08a70,70,0,0,0-25.46-95.66,70.22,70.22,0,0,0-77.34,4.76,73.74,73.74,0,0,1,22,36.52h-6.43a69.26,69.26,0,0,0-20.31-32.53,69.19,69.19,0,0,0-20.31,32.53h-6.43a73.74,73.74,0,0,1,22-36.52A70.21,70.21,0,0,0,68,89.42a70,70,0,0,0,0,121.11,70.21,70.21,0,0,0,77.33-4.76,73.92,73.92,0,0,1-21.21-33.94h6.43a68.65,68.65,0,0,0,19.55,30,68.68,68.68,0,0,0,19.54-30h6.43a74,74,0,0,1-21.22,33.94A70,70,0,0,0,257.64,185.08Zm-194-51.81H74.88L69.22,167H62l4.11-25.84L57,167H52l-0.51-25.71L47.1,167H40.29l5.66-33.68H56.36l0.25,21ZM96.22,147q0,0.77-.51,5.4-2.06,13-2.19,14.53h-6l0.13-2.83a8.83,8.83,0,0,1-7.45,3.34,6.2,6.2,0,0,1-4.82-2.06,7.72,7.72,0,0,1-1.87-5.4,9.53,9.53,0,0,1,3.34-7.78q3.35-2.76,9.39-2.77a27.74,27.74,0,0,1,3,.13,3.41,3.41,0,0,1,.06-0.71c0-.21.08-0.41,0.13-0.58a1.77,1.77,0,0,0,.06-0.38q0-2.57-4.63-2.57a24,24,0,0,0-7.58,1.28q0-.51.9-6.17a31.54,31.54,0,0,1,8.62-1.41Q96.22,139.05,96.22,147Zm-8,7.72H86.58q-6,0-6,4.11,0,2.83,2.57,2.83a4.3,4.3,0,0,0,3.6-1.93A8.94,8.94,0,0,0,88.25,154.74Zm28-15.17-1,6.3a39.18,39.18,0,0,0-5.27-.39q-3.47,0-3.47,2.19a2,2,0,0,0,.58,1.54,11.52,11.52,0,0,0,2.77,1.41q5.14,2.44,5.14,7.72,0,9.26-11.18,9.13a31.15,31.15,0,0,1-7.46-.77q0-.25.9-6.3a25.1,25.1,0,0,0,6.56,1q4.11,0,4.11-2.44a2,2,0,0,0-.58-1.48,11.42,11.42,0,0,0-2.77-1.61Q99,153.32,99,148.31q0-9.26,10.8-9.26A33.82,33.82,0,0,1,116.28,139.57Zm11.31,0h3.6l-0.9,6.69h-3.73q-0.26,2.19-.84,5.21t-0.9,5a21.85,21.85,0,0,0-.32,2.31q0,2.06,2.44,2.06a8.35,8.35,0,0,0,2.06-.26l-1,6a16.3,16.3,0,0,1-5.14.9q-5.53,0-5.79-6a55.67,55.67,0,0,1,1-7.2q0.39-2.57,3.22-18.77h7.07Zm26.1,9.39a28.92,28.92,0,0,1-.9,6.69H138.52a4.4,4.4,0,0,0,1.29,4.24,7.36,7.36,0,0,0,4.88,1.41,16.47,16.47,0,0,0,7.46-1.8L151,166.44a28.38,28.38,0,0,1-7.33,1q-12.21,0-12.21-12.21,0-7.07,3.53-11.64a10.86,10.86,0,0,1,8.94-4.56,9.51,9.51,0,0,1,7.13,2.7A9.85,9.85,0,0,1,153.69,149ZM139,150.11h8v-0.39a2,2,0,0,0,.07-0.84c0-.21-0.09-0.51-0.13-0.9a3.7,3.7,0,0,0-.26-1,2.73,2.73,0,0,0-.58-0.84,3.25,3.25,0,0,0-1-.64,3.71,3.71,0,0,0-1.48-.26Q140.06,145.22,139,150.11Zm32.53-10.67a30.17,30.17,0,0,0-2.83,8q-2.83-.26-4,3.09T161.53,167h-7.2l0.38-1.8q2.83-16.71,3.73-25.59H165l-0.38,4.24A15.35,15.35,0,0,1,167.9,140,4.25,4.25,0,0,1,171.56,139.44Zm24-5.27-1.16,7.33a14.67,14.67,0,0,0-6.43-1.8,7.8,7.8,0,0,0-6.56,3.53,15,15,0,0,0-2.57,9.06,9.47,9.47,0,0,0,1.73,6,6,6,0,0,0,5,2.19,14.51,14.51,0,0,0,6.17-1.67l-1.29,7.59a23.63,23.63,0,0,1-6.43,1,11.56,11.56,0,0,1-9.2-3.92q-3.4-3.92-3.41-10.61,0-9,4.56-14.72a14.38,14.38,0,0,1,11.77-5.72A23.09,23.09,0,0,1,195.61,134.17ZM216.43,147a33.44,33.44,0,0,1-.51,5.4q-1.67,10.16-2.19,14.53h-5.92l0.13-2.83q-2.57,3.35-7.58,3.34a6,6,0,0,1-4.76-2.06,7.91,7.91,0,0,1-1.8-5.4,9.62,9.62,0,0,1,3.28-7.78q3.28-2.76,9.32-2.77a25.59,25.59,0,0,1,3,.13,6.1,6.1,0,0,0,.25-1.67q0-2.57-4.63-2.57a24,24,0,0,0-7.58,1.28q0-.51,1-6.17a31.52,31.52,0,0,1,8.62-1.41Q216.43,139.05,216.43,147Zm-8,7.72h-1.54q-6.17,0-6.17,4.11,0,2.83,2.57,2.83a4.3,4.3,0,0,0,3.6-1.93A8.9,8.9,0,0,0,208.46,154.74Zm26.1-15.3a24.75,24.75,0,0,0-2.7,8q-3-.26-4,3T224.54,167h-7.2l0.38-1.8q2.44-13.37,3.73-25.59h6.69a26.07,26.07,0,0,1-.51,4.24A17.35,17.35,0,0,1,231,140,4,4,0,0,1,234.56,139.44Zm18.13-6.17h7.2L254.36,167h-6.81l0.38-2.44a9.22,9.22,0,0,1-6.69,3,7.62,7.62,0,0,1-6.36-3.09,13.11,13.11,0,0,1-2.38-8.23A20,20,0,0,1,236,144.33q3.53-5,8.29-5a8.36,8.36,0,0,1,6.81,3.73Zm-3.21,18.13q0-5.27-3.86-5.27a4.56,4.56,0,0,0-4,2.57,12.56,12.56,0,0,0-1.55,6.56q0,5.4,3.6,5.4a4.79,4.79,0,0,0,4.18-2.57A12.47,12.47,0,0,0,249.48,151.4Z" transform="translate(-1.98 -51.24)"/></svg>