<svg id="icn_x" xmlns="http://www.w3.org/2000/svg" width="278.18" height="278.2" viewBox="0 0 278.18 278.2"><title>icn_x</title><path id="icn_x-2" data-name="icn_x" d="M289,234.52a21.69,21.69,0,0,1-6.56,15.93L250.57,282.3a22.61,22.61,0,0,1-31.84,0l-68.85-68.85L81,282.3a21.69,21.69,0,0,1-15.93,6.56,21.65,21.65,0,0,1-15.91-6.56L17.34,250.45a22.61,22.61,0,0,1,0-31.84l68.85-68.85L17.34,80.92A21.62,21.62,0,0,1,10.79,65a21.65,21.65,0,0,1,6.56-15.93L49.19,17.21A21.65,21.65,0,0,1,65.1,10.65,21.69,21.69,0,0,1,81,17.21l68.85,68.85,68.85-68.85a22.61,22.61,0,0,1,31.84,0l31.84,31.84A21.71,21.71,0,0,1,289,65a21.69,21.69,0,0,1-6.56,15.93l-68.85,68.85,68.85,68.85A21.68,21.68,0,0,1,289,234.52Z" transform="translate(-10.79 -10.65)"/></svg>