<svg id="icn_amexpr" xmlns="http://www.w3.org/2000/svg" viewBox="0 0 296.23 197.49"><title>icn_amexpr</title><path id="icn_amexpr-2" data-name="icn_amexpr" d="M298.24,202.05V231.5a16.81,16.81,0,0,1-4.95,12.15,16.18,16.18,0,0,1-12,5.08H19a16.15,16.15,0,0,1-12-5.08A16.8,16.8,0,0,1,2,231.5V144.33H16.28l3.21-7.84h7.07l3.21,7.84h28v-5.92l2.44,5.92H74.78l2.57-6v6h69.55V131.6l1.29-.13q1.28,0,1.29,1.8v11.06h35.87v-3a25.39,25.39,0,0,0,7.07,2.31,43.85,43.85,0,0,0,6.75.84q2.64,0.07,8.1-.06t6.62-.13l3.21-7.84h7.2l3.22,7.84h29.18v-7.46l4.37,7.46h23.4V95.73H261.34v5.66l-3.22-5.66H234.34v5.66l-3-5.66h-32q-8.87,0-14,2.83V95.73H163.24v2.83q-3.08-2.83-9.38-2.83H73.11L67.58,108.2,62.05,95.73H36.6v5.66l-2.83-5.66H12l-10,23V68.47A16.8,16.8,0,0,1,7,56.32a16.15,16.15,0,0,1,12-5.08H281.27a16.18,16.18,0,0,1,12,5.08,16.81,16.81,0,0,1,4.95,12.15v87.17H282.81q-6.56,0-10.42,2.83v-2.83H249.64q-7.07,0-10,2.83v-2.83H199v2.83q-4-2.83-11.18-2.83H160.93v2.83q-3-2.83-11.7-2.83H119.14l-6.94,7.46-6.43-7.46H60.9v48.6H105l7.07-7.59,6.69,7.59h27.13V192.8h2.7q7.59,0,11.57-1.67v13.11h22.37V191.51h1a1.18,1.18,0,0,1,1.55,1.54v11.18h68q7.33,0,11.31-3.09v3.09H286Q293.74,204.24,298.24,202.05ZM91.88,102.54v34.84H83.4V110.13L71.31,137.38H64L51.9,110.13v27.26h-17l-3.22-7.72H14.35l-3.21,7.72h-9l14.91-34.84H29.39l14.14,33v-33H57.17L68.1,126.2,78,102.54H91.88ZM17.31,122.47H28.75L23,108.58ZM163.37,174a13.12,13.12,0,0,1-.71,4.5,10.52,10.52,0,0,1-1.8,3.22,8.27,8.27,0,0,1-2.89,2.12,23.64,23.64,0,0,1-3.34,1.29,18.21,18.21,0,0,1-4.05.58q-2.51.13-4,.13c-1,0-2.42,0-4.18-.06s-3-.06-3.79-0.06v11.7h-16.2l-10.29-11.57L101.4,197.42H68.48V162.58h33.43L112.2,174l10.54-11.44h26.61Q163.37,162.58,163.37,174ZM97.15,190.1l9.52-10.16-9-10.16h-21v6.3H95v7.07H76.71v6.94H97.15ZM126,130.18v7.2H98.05V102.54H126v7.33H106.41v6.3h19v7.07h-19v6.94H126Zm-8.48,49.89,12.73,14.14v-27.9Zm47.7-68.14a10.44,10.44,0,0,1-1.61,5.66,9.3,9.3,0,0,1-4.31,3.73q3.35,1.16,4.44,3.28a13.31,13.31,0,0,1,1.09,6v6.81h-8.36c0-.77,0-1.91.06-3.41s0-2.57,0-3.21a16.4,16.4,0,0,0-.38-2.38,3.66,3.66,0,0,0-1.09-2.06,6.49,6.49,0,0,0-2.25-1.09,13.34,13.34,0,0,0-3.79-.45h-9v12.6h-8.23V102.54l19.67,0.13q6.3,0,10,1.86T165.17,111.92ZM154.5,174q0-4.24-5.14-4.24h-10.8v8.87h10.67Q154.49,178.65,154.5,174Zm1.41-60.43q0-3.73-5.4-3.73H140v7.71h10.41Q155.91,117.58,155.91,113.6ZM200.78,172a10.56,10.56,0,0,1-1.54,5.53,8.9,8.9,0,0,1-4.37,3.73,7.54,7.54,0,0,1,4.37,3.34,12.75,12.75,0,0,1,1.16,5.91v6.94H192v-5.78q0-4.24-1.54-5.59t-5.91-1.35h-8.87v12.73h-8.36V162.58h19.8a21.67,21.67,0,0,1,9.9,1.93Q200.78,166.44,200.78,172Zm-22.37-69.43v34.84h-8.49V102.54h8.49Zm13.24,71q0-3.73-5.4-3.73H175.71v7.84h10.42Q191.65,177.63,191.65,173.51ZM277,102.67v34.71H265.2l-15.68-26.1v26.1h-17l-3.34-7.72H212l-3.21,7.72h-9.64q-16.59,0-16.59-17.1,0-17.74,17.1-17.74h8.1v7.59q-0.9,0-3.6-.13t-3.66-.06c-0.64,0-1.63.13-3,.26a5.27,5.27,0,0,0-2.76.84q-0.77.65-1.87,1.74a5.7,5.7,0,0,0-1.47,3A21.29,21.29,0,0,0,191,120q0,4.89,1.74,7.46t6.36,2.57h3.73l11.83-27.39h12.47l14,32.91V102.67h12.73l14.66,24.17V102.67H277Zm-43.84,87.56v7.2H205.41V162.58h27.77v7.2H213.77v6.3h19v7.07h-19v6.94Zm-18.26-67.76h11.44l-5.66-13.89Zm52.59,63.9q0,11.06-13.12,11.06H238.2V190h16.2q4.37,0,4.37-3.22a2.65,2.65,0,0,0-2.19-2.7,19.14,19.14,0,0,0-5.34-.64,45.66,45.66,0,0,1-6.36-.45,8.66,8.66,0,0,1-5.4-2.89q-2.19-2.44-2.19-7.07a9.35,9.35,0,0,1,3.34-7.72,13.09,13.09,0,0,1,8.49-2.7h16.72v7.33h-15.3q-4.63,0-4.63,3.22a2.57,2.57,0,0,0,2.25,2.63,20.06,20.06,0,0,0,5.4.51,44.56,44.56,0,0,1,6.3.32,8.71,8.71,0,0,1,5.4,2.76Q267.51,181.74,267.51,186.37Zm30.73-6.43v13q-3.08,4.5-11.31,4.5H270.85V190h16.07q4.24,0,4.25-3.22a2.56,2.56,0,0,0-1.61-2.44,8.65,8.65,0,0,0-4-.71,35.62,35.62,0,0,1-5.14-.26,30.2,30.2,0,0,1-5.14-1,7.27,7.27,0,0,1-4-3.09A10.93,10.93,0,0,1,269.7,173a9.28,9.28,0,0,1,3.41-7.72,13.35,13.35,0,0,1,8.55-2.7h16.58v7.33H283.07q-4.63,0-4.63,3.22,0,2.57,3.73,2.83L291,176.6Q296.05,177,298.24,179.94Z" transform="translate(-2.01 -51.24)"/></svg>