<svg id="icn_chkpnt" xmlns="http://www.w3.org/2000/svg" width="290.22" height="222.44" viewBox="0 0 290.22 222.44"><title>icn_chkpnt</title><path id="icn_chkpnt-2" data-name="icn_chkpnt" d="M294.53,82.31A17.36,17.36,0,0,1,289.29,95L153.73,230.6l-25.46,25.46a18.08,18.08,0,0,1-25.46,0L77.33,230.6,9.55,162.82a18.08,18.08,0,0,1,0-25.46L35,111.89a17.36,17.36,0,0,1,12.74-5.24,17.33,17.33,0,0,1,12.73,5.24l55.05,55.24,122.83-123a18.08,18.08,0,0,1,25.46,0l25.46,25.46A17.34,17.34,0,0,1,294.53,82.31Z" transform="translate(-4.31 -38.88)"/></svg>