<svg xmlns="http://www.w3.org/2000/svg" viewBox="0 0 98.55 63.35"><path d="M98.55 31.68a7.64 7.64 0 0 1-1.1 3.79 58.38 58.38 0 0 1-20.71 20.27 53.53 53.53 0 0 1-27.47 7.61 53.36 53.36 0 0 1-27.47-7.64A58.7 58.7 0 0 1 1.1 35.47a7.1 7.1 0 0 1 0-7.59A58.74 58.74 0 0 1 21.81 7.64a53.18 53.18 0 0 1 54.94 0 58.77 58.77 0 0 1 20.7 20.24 7.65 7.65 0 0 1 1.1 3.8zm-7 0a54.08 54.08 0 0 0-21-19.42 24 24 0 0 1 3.36 12.37A23.73 23.73 0 0 1 66.68 42a23.74 23.74 0 0 1-17.41 7.23A23.74 23.74 0 0 1 31.87 42a23.73 23.73 0 0 1-7.23-17.41A24 24 0 0 1 28 12.26 54.08 54.08 0 0 0 7 31.68a56.78 56.78 0 0 0 18.34 18 46.05 46.05 0 0 0 47.79 0 56.82 56.82 0 0 0 18.38-18zM51.14 12.43a2.66 2.66 0 0 0 0-3.74 2.54 2.54 0 0 0-1.87-.77 16.09 16.09 0 0 0-11.8 4.92 16.1 16.1 0 0 0-4.92 11.8 2.64 2.64 0 1 0 5.28 0A11.45 11.45 0 0 1 49.27 13.2a2.54 2.54 0 0 0 1.87-.77z"/></svg>