<svg id="icn_pencil" xmlns="http://www.w3.org/2000/svg" viewBox="0 0 284.62 284.62"><title>icn_pencil</title><path d="M9.43,291.6a5.86,5.86,0,0,0,4.11,1.72,6.59,6.59,0,0,0,1.78-.28l60.84-19.23A5.82,5.82,0,0,0,79,272.25L265.45,85.72a6,6,0,0,0,.47-0.42,5.85,5.85,0,0,0,.42-0.47l24.26-24.27a5.87,5.87,0,0,0,0-8.28L248.75,10.41a5.87,5.87,0,0,0-8.28,0L29.1,221.78A5.77,5.77,0,0,0,27.49,224v0c-0.05.14-.11,0.28-0.15,0.42L8,285.7A5.75,5.75,0,0,0,9.43,291.6Zm31.74-65.32L219.9,47.55l33.58,33.58L74.75,259.85Zm237-169.83-16.4,16.4L228.18,39.27l16.4-16.4Zm-255.61,222,13-41.27,28.22,28.22Z" transform="translate(-7.7 -8.7)"/></svg>