<svg id="ocn_lock" xmlns="http://www.w3.org/2000/svg" viewBox="0 0 243.27 297.33"><title>icn_lock</title><path id="ocn_lock-2" data-name="ocn_lock" d="M269.32,157.07V278.7A20.19,20.19,0,0,1,249,299H46.32A20.19,20.19,0,0,1,26.05,278.7V157.07A20.19,20.19,0,0,1,46.32,136.8h6.76V96.25Q53.08,57.4,81,29.52T147.69,1.65q38.85,0,66.73,27.87t27.87,66.73V136.8H249A20.19,20.19,0,0,1,269.32,157.07ZM93.63,136.8H201.75V96.25A52.09,52.09,0,0,0,185.91,58a52.08,52.08,0,0,0-38.22-15.84A52.07,52.07,0,0,0,109.47,58,52.09,52.09,0,0,0,93.63,96.25V136.8Z" transform="translate(-26.05 -1.65)"/></svg>