<svg id="icn_usr_m" xmlns="http://www.w3.org/2000/svg" viewBox="0 0 296.56 296.56"><title>icn_usr_m</title><path id="icn_usr_m-2" data-name="icn_usr_m" d="M149.87,2.27A148.28,148.28,0,1,0,298.15,150.54,148.28,148.28,0,0,0,149.87,2.27Zm78.48,249.58a1.14,1.14,0,0,1-.94-0.07c-8.78-4.06-17.49-8.27-25.9-13.07a98.28,98.28,0,0,1-12.15-7.92c-1.47-1.16-2.86-2.43-4.22-3.72a13.26,13.26,0,0,1-2.57-3.36,4.35,4.35,0,0,1-.55-2.17c0-3.76,0-7.51,0-11.27a1.73,1.73,0,0,1,.47-1.33,75.07,75.07,0,0,0,14.17-21.62,95.41,95.41,0,0,0,4.51-12.42,2.44,2.44,0,0,1,.89-1.35,21,21,0,0,0,4-29.28,2.7,2.7,0,0,1-.56-1.72c0-8.86,0-17.72,0-26.59,0-2.8-.09-5.6-0.33-8.39a51.56,51.56,0,0,0-5.32-19.39A40.53,40.53,0,0,0,181,69.92a56.29,56.29,0,0,0-13.83-4.55,85.25,85.25,0,0,0-17.88-1.53,78.07,78.07,0,0,0-17.71,2.1,49.76,49.76,0,0,0-19,8.85A41.64,41.64,0,0,0,99.09,93.39a53.39,53.39,0,0,0-2.82,11.17,72.15,72.15,0,0,0-.71,10.34q0,13.79,0,27.57a3,3,0,0,1-.63,1.89,20.3,20.3,0,0,0-4.11,13.42,20.57,20.57,0,0,0,8.05,15.65,2.92,2.92,0,0,1,1,1.58,89.51,89.51,0,0,0,10.62,23.7,66.72,66.72,0,0,0,7.85,10,2.18,2.18,0,0,1,.66,1.66q0,5.58,0,11.17a4.25,4.25,0,0,1-.47,2,14,14,0,0,1-2,2.91,37.87,37.87,0,0,1-6.05,5.36,116.43,116.43,0,0,1-13.14,8.21c-8,4.41-16.28,8.33-24.61,12.11a1.4,1.4,0,0,1-.74.15A128.23,128.23,0,1,1,228.35,251.84Z" transform="translate(-1.6 -2.27)"/></svg>