<svg id="icn_card2" xmlns="http://www.w3.org/2000/svg" width="285.96" height="190.63" viewBox="0 0 285.96 190.63"><title>icn_card2</title><path id="icn_card2-2" data-name="icn_card2" d="M272.62,54.87a19.93,19.93,0,0,1,19.86,19.86v27.8H6.52V74.73a19.12,19.12,0,0,1,5.84-14,19.12,19.12,0,0,1,14-5.84H272.62Zm14,184.81a19.12,19.12,0,0,1-14,5.83H26.38a19.14,19.14,0,0,1-14-5.83,19.12,19.12,0,0,1-5.84-14V150.19h286v75.46A19.12,19.12,0,0,1,286.64,239.67Zm-57.71-41.83v15.89H260.7V197.84H228.93Zm-63.54,0v15.89H213V197.84H165.39Z" transform="translate(-6.52 -54.87)"/></svg>