<svg id="icn_card1" xmlns="http://www.w3.org/2000/svg" width="285.95" height="190.63" viewBox="0 0 285.95 190.63"><title>icn_card1</title><g id="icn_card1-2" data-name="icn_card1"><path d="M272.7,54.37H26.29A19.77,19.77,0,0,0,6.52,74.14V225.23A19.77,19.77,0,0,0,26.29,245H272.7a19.77,19.77,0,0,0,19.77-19.77V74.14A19.77,19.77,0,0,0,272.7,54.37Zm8.77,170.86A8.78,8.78,0,0,1,272.7,234H26.29a8.78,8.78,0,0,1-8.77-8.77V149.68H281.47v75.55Zm0-123.2H17.52V74.14a8.78,8.78,0,0,1,8.77-8.77H272.7a8.78,8.78,0,0,1,8.77,8.77V102Z" transform="translate(-6.52 -54.37)"/><rect x="158.87" y="142.98" width="47.66" height="15.89"/><rect x="222.4" y="142.98" width="31.77" height="15.89"/></g></svg>