<svg xmlns="http://www.w3.org/2000/svg" viewBox="0 0 31 31.17"><path d="M21.08 18.37a1.67 1.67 0 0 0-2.31 0L17 20.07c-1.24-.13-4.93-3.55-5.89-5.77a2.12 2.12 0 0 1-.11-.37l1.77-1.74a1.65 1.65 0 0 0 0-2.33l-6.3-6.43a1.64 1.64 0 0 0-2.33 0L3.5 4C2 5.47.06 7.27 0 10.17c-.06 3.35 2.46 7.59 7.73 13s9.46 8 12.86 8c3 0 5-2.09 6.52-3.77l.33-.4a1.65 1.65 0 0 0 0-2.28zM9.37 12.66a2.1 2.1 0 0 0-.14 2.45c1 2.25 5.29 7 7.82 7a1.87 1.87 0 0 0 .86-.2 1.29 1.29 0 0 0 .32-.23l1.66-1.62 5.8 5.86-.09.1c-1.47 1.6-2.87 3.11-5 3.11-2.78 0-6.51-2.43-11.41-7.43S2 13 2 10.21c0-2.05 1.41-3.34 2.87-4.72l.38-.36 5.8 5.87zm15.22 1.74a1 1 0 0 0 1 1.05 1 1 0 0 0 1-1 9.67 9.67 0 0 0-2.85-7.23 9.77 9.77 0 0 0-7.23-2.85 1 1 0 0 0-1 1 1 1 0 0 0 1 1 7.71 7.71 0 0 1 8.08 8.03z"/><path d="M26.86 4.13A14.18 14.18 0 0 0 16.55 0a1 1 0 0 0-1 1 1 1 0 0 0 .32.72 1 1 0 0 0 .72.27A12.08 12.08 0 0 1 29 14.41a1 1 0 0 0 .28.73 1 1 0 0 0 1.72-.69 14 14 0 0 0-4.14-10.32zM16.5 8.76a1 1 0 0 0-.95 1.08 1 1 0 0 0 .37.73 1 1 0 0 0 .71.22 3.29 3.29 0 0 1 2.59 1 3.36 3.36 0 0 1 1 2.6 1 1 0 0 0 1 1.08 1 1 0 0 0 1-.95 5.38 5.38 0 0 0-5.72-5.76z"/></svg>