<svg id="icn_coins" xmlns="http://www.w3.org/2000/svg" width="289.39" height="250.68" viewBox="0 0 289.39 250.68"><title>icn_coins</title><g id="icn_coins-2" data-name="icn_coins"><path d="M133.23,142.75c-6.24,2.83-12.77,6.19-17.32,11.45-4,4.66-5.74,10.78-2.81,16.48,2.78,5.42,8.08,9.23,13.25,12.17,11.67,6.64,25.36,10,38.5,12.25a224.38,224.38,0,0,0,85.67-1.88c12.38-2.75,25.78-6.64,35.79-14.79,4.5-3.67,8.68-8.8,8.19-15S289.07,152.36,284.3,149c-10.89-7.71-24.66-11.59-37.63-14a264.67,264.67,0,0,0-41.49-4.3l-1.84-.06c-15.88.79-31.8,1.41-47.36,5C148.3,137.4,140.44,139.48,133.23,142.75Z" transform="translate(-5.31 -24.66)"/><path d="M19.11,76.12C30.63,83,44.57,86.71,57.73,88.84c27.6,4.47,56.12,4.82,83.6-.89,12.76-2.65,26.67-6.37,37.35-14.18,4.64-3.39,9.26-8.18,9.8-14.18s-3.41-11-7.75-14.73c-10-8.46-24.31-12.53-36.83-15.22-14.15-3-28.35-4-42.75-5-16.24.56-32.27,1.12-48.22,4.48-14.16,3-30.18,6.87-41,17.1-4.45,4.19-7.6,9.94-5.63,16.12S13.73,72.88,19.11,76.12Z" transform="translate(-5.31 -24.66)"/><path d="M294.43,223.23c-0.56,0-1.33,3-1.69,3.77a18.57,18.57,0,0,1-2.74,3.93,35,35,0,0,1-7.47,6.19,78.78,78.78,0,0,1-19,8.57c-26.66,8.54-55.33,9.68-83,7.28-13.89-1.2-27.81-3.67-41-8.4-11.24-4-23.36-9.32-27.74-21.27-1,1.67-.37,4.84-0.37,6.72q0,3.75,0,7.49c0,3.91.06,7.58,2,11.07,4.06,7.14,12.36,11.5,19.61,14.7,14.89,6.59,31.77,9.44,47.88,11a229.41,229.41,0,0,0,50.36-.7c16.29-2.07,33.2-5.51,47.79-13.37,5.82-3.14,12.12-7.73,14.44-14.2,1.29-3.61.89-7.41,0.89-11.17S295,227,294.43,223.23Z" transform="translate(-5.31 -24.66)"/><path d="M294.43,184.67c-0.8.35-1,2.7-1.48,3.56a18.15,18.15,0,0,1-2.62,3.77,36.12,36.12,0,0,1-7.61,6.52c-5.83,3.8-12.44,6.23-19,8.45-13.12,4.45-27,6.55-40.74,7.78a225.45,225.45,0,0,1-42.14-.34c-13.87-1.35-27.36-3.6-40.6-8.06a87,87,0,0,1-17.15-8.17c-4.81-2.9-10.1-7.61-11.1-13.43-1,0-.46,11.14-0.45,12.57,0,4.1-.22,8.09,1.6,11.88,3.44,7.15,11.52,11.61,18.42,14.8,14.92,6.9,31.64,9.87,47.9,11.44a245.78,245.78,0,0,0,51.67-.35c16.23-1.85,33.26-5.53,47.79-13.25,6-3.17,12.4-7.81,14.75-14.43,1.25-3.53.86-7.14,0.84-10.81C294.46,192.65,294.88,188.6,294.43,184.67Z" transform="translate(-5.31 -24.66)"/><path d="M5.54,93c0,4.06.13,7.72,2.23,11.33,4.18,7.17,12.78,11.62,20.12,14.78,14.83,6.38,31.36,9.17,47.35,10.61a233.45,233.45,0,0,0,51.76-.82c15.67-2.08,31.68-5.49,45.78-12.9,5.9-3.1,12.35-7.67,14.78-14.15,1.33-3.53,1-7.14,1-10.83,0-4,.4-8.16,0-12.16,0,0,0-.08,0-0.14-0.58,0-1.2,2.9-1.55,3.6a18.43,18.43,0,0,1-2.9,4.09,37.55,37.55,0,0,1-7.5,6.27c-5.84,3.78-12.34,6.28-18.91,8.43-26.24,8.62-55.48,10.17-82.85,7.53-13.33-1.29-27-3.39-39.67-8-11.1-4-25.5-9.32-29.19-21.85-1.09,1.54-.41,4.85-0.41,6.65Q5.53,89.19,5.54,93Z" transform="translate(-5.31 -24.66)"/><path d="M100,148.17c-2.48,0-5,0-7.43,0-4.95-.1-9.89-0.34-14.82-0.76a210.14,210.14,0,0,1-29-4.38c-8.77-2-17.64-4.62-25.65-8.77-7.7-4-14.42-8.79-17.17-17.31-0.4-.12-0.36,7.2-0.35,8.13q0,4.36,0,8.72a18.16,18.16,0,0,0,5.61,13.44c6.53,6.63,15.92,10.57,24.62,13.4A160.7,160.7,0,0,0,66,167.11a313.93,313.93,0,0,0,31.59,2.08c2.38,0,4.32.88,4.28-1.95a49.31,49.31,0,0,1,.21-6.63,26.81,26.81,0,0,1,1.78-7.57c0.74-1.7,2.19-3.19,2.66-5C104.41,147.74,102.11,148.15,100,148.17Z" transform="translate(-5.31 -24.66)"/><path d="M101.88,229.51c0-1.21.58-3.56-.56-4.3s-4.55,0-5.81,0a202.75,202.75,0,0,1-52-6.46c-7.9-2.09-15.74-4.68-22.88-8.72C14.68,206.7,7.23,201.62,6,194.38c-1,0-.44,11.6-0.44,13.08,0,4.83-.08,9,2.63,13.16,4.54,7,13.2,11.53,20.76,14.53,16.13,6.41,33.72,9.35,51,10.55,4.67,0.32,9.35.48,14,.53,2.15,0,4.31.11,6.45,0.05,2.47-.06,1.74-0.73,1.54-2.89C101.5,238.85,101.86,234.09,101.88,229.51Z" transform="translate(-5.31 -24.66)"/><path d="M101.85,189.09c-0.07-3.3-2.31-2.38-5.16-2.39-17.43,0-35-1.76-51.92-6.17-14.38-3.76-33.42-9.35-38.93-24.8-0.61,0-.27,12.78-0.27,14.29,0,4.67.2,8.54,2.91,12.51,5,7.25,14,11.36,21.88,14.57,16.07,6.52,33.91,9,51.11,10.1,4.49,0.28,9,.36,13.5.45,1.26,0,5.55.83,6.51,0.05s0.37-4.26.37-5.55C101.86,197.8,101.94,193.44,101.85,189.09Z" transform="translate(-5.31 -24.66)"/></g></svg>