<svg id="icn_cart" xmlns="http://www.w3.org/2000/svg" viewBox="0 0 297.31 234.88"><title>icn_cart</title><g id="icn_cart-2" data-name="icn_cart"><path d="M297.73,91.35A8.23,8.23,0,0,0,291,87.81H79.16L63.9,38.3A8.23,8.23,0,0,0,56,32.49l-45.89-.1h0a8.23,8.23,0,0,0-8.23,8.2l0,16.45A8.23,8.23,0,0,0,10.1,65.3h0a8.23,8.23,0,0,0,8.23-8.22l0-8.22L50,48.93,95.56,196.8a8.23,8.23,0,0,0,7.85,5.81l150.81,0.3h0a8.22,8.22,0,0,0,7.71-5.36l36.74-98.64A8.21,8.21,0,0,0,297.73,91.35Zm-49.21,95.09-139-.28-25.25-81.9H279.13Z" transform="translate(-1.89 -32.39)"/><path d="M139.18,222.64h-0.05a22.24,22.24,0,0,0,0,44.48h0A22.24,22.24,0,0,0,139.18,222.64Zm7.91,30.23a11.17,11.17,0,0,1-7.95,3.29h0a11.3,11.3,0,0,1-11.26-11.3,11.28,11.28,0,0,1,11.27-11.25h0A11.27,11.27,0,0,1,147.09,252.86Z" transform="translate(-1.89 -32.39)"/><path d="M218.39,222.79h0a22.24,22.24,0,0,0-.05,44.48h0.05A22.24,22.24,0,0,0,218.39,222.79ZM226.31,253a11.19,11.19,0,0,1-8,3.29h0A11.26,11.26,0,0,1,207.07,245a11.29,11.29,0,0,1,11.28-11.25h0A11.27,11.27,0,0,1,226.31,253Z" transform="translate(-1.89 -32.39)"/></g></svg>