<svg id="icn_usr" xmlns="http://www.w3.org/2000/svg" viewBox="0 0 296.29 296.24"><title>icn_usr</title><path id="icn_usr-2" data-name="icn_usr" d="M284.13,220.83c-70.59-27.27-85.56-39.44-88.45-42.46v-5.92a100,100,0,0,0,18.87-35,34.71,34.71,0,0,0,10.6-20.49,34.28,34.28,0,0,0-4.72-22.75V67.36c0-41.16-26.29-65.73-70.35-65.73-43.4,0-70.37,25.18-70.37,65.73V94.2A34.18,34.18,0,0,0,75,116.92a34.84,34.84,0,0,0,10.6,20.5,100,100,0,0,0,18.87,35v5.65c-3.78,4.21-20,16.24-88.45,42.73A22.26,22.26,0,0,0,1.94,241.46v34.31a22.06,22.06,0,0,0,22,22.1H276.27a22.06,22.06,0,0,0,22-22.1V241.46A22.22,22.22,0,0,0,284.13,220.83Z" transform="translate(-1.94 -1.63)"/></svg>