<svg id="icn_chk" xmlns="http://www.w3.org/2000/svg" viewBox="0 0 292.64 292.64"><title>icn_chk</title><path id="icn_chk-2" data-name="icn_chk" d="M276.55,76.54A143.2,143.2,0,0,1,296.17,150a143.19,143.19,0,0,1-19.62,73.45,145.75,145.75,0,0,1-53.25,53.25,143.17,143.17,0,0,1-73.45,19.62A143.17,143.17,0,0,1,76.4,276.68a145.59,145.59,0,0,1-53.25-53.25A143.07,143.07,0,0,1,3.53,150,143.09,143.09,0,0,1,23.16,76.54,145.64,145.64,0,0,1,76.4,23.28,143.17,143.17,0,0,1,149.85,3.66,143.17,143.17,0,0,1,223.3,23.28,145.79,145.79,0,0,1,276.55,76.54Zm-28.39,42.58a11.88,11.88,0,0,0-3.43-8.76L227.39,93.21a12,12,0,0,0-17.14,0l-77.73,77.54L89.45,127.69a12,12,0,0,0-17.14,0L55,144.84a11.85,11.85,0,0,0-3.43,8.76A11.61,11.61,0,0,0,55,162.17l69,69a11.71,11.71,0,0,0,8.58,3.62,11.93,11.93,0,0,0,8.76-3.62L244.73,127.69A11.64,11.64,0,0,0,248.16,119.12Z" transform="translate(-3.53 -3.66)"/></svg>