<svg id="icn_quest" xmlns="http://www.w3.org/2000/svg" viewBox="0 0 287.38 287.38"><title>icn_quest</title><path id="icn_quest-2" data-name="icn_quest" d="M272.79,77.86A140.63,140.63,0,0,1,292.06,150a140.61,140.61,0,0,1-19.27,72.13,143.13,143.13,0,0,1-52.29,52.29,140.59,140.59,0,0,1-72.13,19.27A140.59,140.59,0,0,1,76.24,274.4,143,143,0,0,1,24,222.11,140.5,140.5,0,0,1,4.68,150,140.51,140.51,0,0,1,24,77.86,143,143,0,0,1,76.24,25.56,140.59,140.59,0,0,1,148.37,6.29a140.59,140.59,0,0,1,72.13,19.27A143.17,143.17,0,0,1,272.79,77.86Zm-52.57,36.2a50.24,50.24,0,0,0-10.38-30.5,72.86,72.86,0,0,0-57.72-29.37Q106.64,54.19,82.7,94q-2.81,4.49,1.5,7.86l24.7,18.71a5.28,5.28,0,0,0,3.56,1.12,5.51,5.51,0,0,0,4.68-2.24q9.91-12.72,16.09-17.21,6.36-4.49,16.09-4.49a27.38,27.38,0,0,1,16,4.86q7,4.87,7,11,0,7.11-3.74,11.41t-12.73,8.42a64.11,64.11,0,0,0-21.61,16.18q-9.82,10.94-9.83,23.48v6.74a5.77,5.77,0,0,0,6,6h35.92a5.77,5.77,0,0,0,6-6q0-3.55,4-9.26a31.55,31.55,0,0,1,10.2-9.26q6-3.37,9.16-5.33a78.81,78.81,0,0,0,8.61-6.55,43.34,43.34,0,0,0,8.32-9,49.46,49.46,0,0,0,5.24-11.32A47.14,47.14,0,0,0,220.21,114.06Zm-47.9,125.73V203.86a5.77,5.77,0,0,0-6-6H130.41a5.77,5.77,0,0,0-6,6v35.92a5.77,5.77,0,0,0,6,6h35.92A5.77,5.77,0,0,0,172.32,239.79Z" transform="translate(-4.68 -6.29)"/></svg>