<?xml version="1.0" encoding="UTF-8"?>
<!DOCTYPE svg PUBLIC "-//W3C//DTD SVG 1.1//EN" "http://www.w3.org/Graphics/SVG/1.1/DTD/svg11.dtd">
<svg version="1.1" xmlns="http://www.w3.org/2000/svg" xmlns:xlink="http://www.w3.org/1999/xlink" viewBox="0 0 90 90">
    <defs>
        <filter id="sh" filterUnits="userSpaceOnUse">
            <feGaussianBlur stdDeviation="5" />
            <feOffset dx="0.1" dy="-0.1" result="blur" />
            <feFlood flood-color="black" flood-opacity="0.54" />
            <feComposite in2="blur" operator="in" result="colorShadow" />
            <feComposite in="SourceGraphic" in2="colorShadow" operator="over" />
        </filter>
    </defs>
    <path stroke="none" fill="#8bc646" filter="url(#sh)" d="M 70.86,18.98 C 84.91,33.03 84.91,55.81 70.86,69.86 56.81,83.91 34.03,83.91 19.98,69.86 5.93,55.81 5.93,33.03 19.98,18.98 34.03,4.93 56.81,4.93 70.86,18.98 Z M 70.86,18.98" />
    <path stroke="none" fill="rgb(255, 255, 255)" d="M 45.42,15.07 L 45.42,15.07 C 61.66,15.07 74.82,28.23 74.82,44.47 74.82,60.71 61.66,73.87 45.42,73.87 29.18,73.87 16.02,60.71 16.02,44.47 L 16.02,44.5 C 16.02,28.25 29.2,15.07 45.45,15.07 M 45.42,8.07 L 45.42,8.07 C 25.31,8.07 9,24.38 9,44.49 9,64.6 25.31,80.91 45.42,80.91 65.53,80.91 81.84,64.6 81.84,44.49 L 81.84,44.42 C 81.84,24.31 65.53,8 45.42,8 L 45.42,8 45.42,8.07 Z M 45.42,8.07" />
    <path stroke="none" fill="white" d="M 63.8,36.86 L 63.8,36.86 C 63.81,37.49 63.56,38.09 63.11,38.53 L 45.49,56.15 42.18,59.46 42.19,59.45 C 41.27,60.37 39.78,60.37 38.86,59.45 L 35.56,56.15 26.74,47.33 26.75,47.34 C 25.83,46.42 25.83,44.93 26.75,44.01 L 30.05,40.71 30.04,40.72 C 30.96,39.8 32.45,39.8 33.37,40.72 L 40.52,47.9 56.52,31.9 56.51,31.91 C 57.43,30.99 58.92,30.99 59.84,31.91 L 63.14,35.21 63.14,35.21 C 63.57,35.64 63.81,36.23 63.8,36.85 L 63.8,36.86 Z M 63.8,36.86" />
</svg>
