<svg id="icn_usr_fm" xmlns="http://www.w3.org/2000/svg" viewBox="0 0 296.56 296.56"><title>icn_usr_fm</title><path id="icn_usr_fm-2" data-name="icn_usr_fm" d="M149.49,1.14A148.28,148.28,0,1,0,297.77,149.41,148.28,148.28,0,0,0,149.49,1.14Zm80.88,247.69a7.07,7.07,0,0,1-1.47-.23Q217.43,246.31,206,244c-5.1-1-10.21-2-15.19-3.51-1.92-.58-3.8-1.29-5.68-2a14.22,14.22,0,0,1-3.62-2,13.7,13.7,0,0,1-1.81-1.67,4.42,4.42,0,0,1-1.16-3.15c0-4.91,0-9.82,0-14.73,0-.45,0-0.9.07-1.39a6.61,6.61,0,0,1,.74-0.12c2.17-.07,4.35-0.11,6.52-0.21,1.58-.07,3.15-0.2,4.73-0.32s3.15-.25,4.72-0.44c2.58-.32,5.16-0.62,7.72-1.05a96.92,96.92,0,0,0,14.38-3.51,63,63,0,0,0,11.59-5c0.71-.41,1.41-0.86,2.1-1.3a5.6,5.6,0,0,0,.56-0.48,4.26,4.26,0,0,0-.49-0.51,17.79,17.79,0,0,1-4.22-4.54,43.09,43.09,0,0,1-4.07-7.78,110.11,110.11,0,0,1-5-15.72q-2.32-9.36-3.79-18.88-1.13-7.37-2.1-14.77c-0.41-3.1-.71-6.22-1-9.33-0.14-1.47-.14-3-0.2-4.44a60.87,60.87,0,0,0-1.45-11,66.45,66.45,0,0,0-13.28-27.85,59,59,0,0,0-29.49-20,57.31,57.31,0,0,0-9.27-1.94,59.15,59.15,0,0,0-42.94,11c-11.84,8.76-19.59,20.38-23.74,34.45a58.94,58.94,0,0,0-2.2,11.33c-0.16,1.77-.25,3.55-0.38,5.32-0.15,2.13-.25,4.27-0.46,6.4-0.25,2.59-.57,5.17-0.9,7.75-0.46,3.53-.89,7.06-1.47,10.57-0.76,4.65-1.58,9.28-2.51,13.9a133.45,133.45,0,0,1-5.93,21.3,46.53,46.53,0,0,1-3.56,7.6c-0.8,1.32-1.7,2.58-2.62,3.83a12.59,12.59,0,0,1-2.77,2.66c-0.18.13-.35,0.29-0.54,0.45a1.51,1.51,0,0,0,.78.75,46.65,46.65,0,0,0,7.16,3.77A87.39,87.39,0,0,0,92,212.69c3.58,0.75,7.19,1.32,10.82,1.73,2.65,0.3,5.31.49,8,.65,2.89,0.17,5.79.25,8.69,0.37,0.26,0,.51.05,0.84,0.09a11.21,11.21,0,0,1,.13,1.19c0,5.08,0,10.15,0,15.23a3.92,3.92,0,0,1-.64,2.15,8.73,8.73,0,0,1-2.33,2.39,20.93,20.93,0,0,1-4.53,2.4,62.37,62.37,0,0,1-9.93,3c-4.76,1-9.53,2-14.3,3-6.42,1.3-12.84,2.56-19.26,3.87a2.46,2.46,0,0,1-1,0A128.23,128.23,0,1,1,230.37,248.82Z" transform="translate(-1.21 -1.14)"/></svg>