<svg id="icn_stop" xmlns="http://www.w3.org/2000/svg" viewBox="0 0 291.59 291.59"><title>icn_stop</title><path id="icn_stop-2" data-name="icn_stop" d="M276.2,76.8A142.69,142.69,0,0,1,295.75,150a142.67,142.67,0,0,1-19.55,73.18,145.22,145.22,0,0,1-53.06,53.06A142.66,142.66,0,0,1,150,295.78a142.66,142.66,0,0,1-73.18-19.55,145.07,145.07,0,0,1-53.05-53.06A142.56,142.56,0,0,1,4.16,150,142.57,142.57,0,0,1,23.72,76.8,145.11,145.11,0,0,1,76.77,23.74,142.66,142.66,0,0,1,150,4.19a142.66,142.66,0,0,1,73.18,19.55A145.27,145.27,0,0,1,276.2,76.8ZM235,162.13v-24.3a12.32,12.32,0,0,0-12.15-12.15H77.06a12.32,12.32,0,0,0-12.15,12.15v24.3a12.32,12.32,0,0,0,12.15,12.15H222.86A12.32,12.32,0,0,0,235,162.13Z" transform="translate(-4.16 -4.19)"/></svg>