<svg id="icn_tag2" xmlns="http://www.w3.org/2000/svg" width="276.26" height="276.26" viewBox="0 0 276.26 276.26"><title>icn_tag2</title><path id="icn_tag2-2" data-name="icn_tag2" d="M287.94,175.51a22.38,22.38,0,0,1-6.74,16.42l-89.54,89.71a23.38,23.38,0,0,1-16.59,6.74,22.32,22.32,0,0,1-16.41-6.74L28.27,151.09q-6.94-6.76-11.77-18.43t-4.83-21.33V35.47A22.47,22.47,0,0,1,18.6,19.05,22.44,22.44,0,0,1,35,12.12h75.87q9.65,0,21.33,4.84t18.6,11.75L281.2,158.92A23.38,23.38,0,0,1,287.94,175.51ZM86.54,87a22.47,22.47,0,0,0,6.83-16.5A23.36,23.36,0,0,0,70,47.13,23.36,23.36,0,0,0,46.69,70.48,23.33,23.33,0,0,0,70,93.82,22.49,22.49,0,0,0,86.54,87Z" transform="translate(-11.68 -12.12)"/></svg>