<svg id="icn_visa" xmlns="http://www.w3.org/2000/svg" viewBox="0 0 296.23 197.49"><title>icn_visa</title><path id="icn_visa-2" data-name="icn_visa" d="M298.18,67.7V232.27a16.68,16.68,0,0,1-16.46,16.46H18.4a15.82,15.82,0,0,1-11.57-4.89,15.81,15.81,0,0,1-4.88-11.57V67.7A15.81,15.81,0,0,1,6.83,56.12,15.82,15.82,0,0,1,18.4,51.24H281.72A16.68,16.68,0,0,1,298.18,67.7Zm-228,86-7.46-37.93q-1.42-6.94-9.64-6.94H18.66l-0.25,1.67Q58.39,120.67,70.22,153.71Zm23-44.87L72.4,165.15l-2.19-11.44a46.79,46.79,0,0,0-10.93-16.65,49.89,49.89,0,0,0-16.84-11.38l17.36,65.57h22.5l33.55-82.41H93.23Zm17.87,82.54h21.34l13.37-82.54H124.48Zm98.74-80.49a52.11,52.11,0,0,0-19.16-3.47q-15.82,0-25.85,7.59t-10.16,19.67q-0.13,13.11,18.64,22.37,6.17,3,8.62,5.27a6.84,6.84,0,0,1,2.44,5q0,3.86-3.86,5.91a18.57,18.57,0,0,1-8.87,2.06,46.45,46.45,0,0,1-20.06-4.24l-2.83-1.41-3,18.51q9.51,4.37,23.79,4.37,16.71,0.13,26.81-7.59a25.28,25.28,0,0,0,10.35-20.57q0-13.63-18-22.37a61.89,61.89,0,0,1-9.13-5.4q-2.83-2.18-2.83-4.89t3.15-4.95q3.15-2.12,9.07-2.12A36.33,36.33,0,0,1,205,127.74l1.93,1Zm54.64-2.06H248q-8.36,0-11.18,6.94l-31.63,75.6h22.37l4.5-12.34h27.26q0.65,2.83,2.57,12.34h19.8Zm-8.62,53.23H238.13q1.8-4.76,8.49-23L247,137.9q0.51-1.28,1.29-3.34t1.16-3.34l1.54,7.07Z" transform="translate(-1.95 -51.24)"/></svg>