<svg id="icn_plus" xmlns="http://www.w3.org/2000/svg" width="287.19" height="287.19" viewBox="0 0 287.19 287.19"><title>icn_plus</title><path id="icn_plus-2" data-name="icn_plus" d="M274.42,77.59a140.47,140.47,0,0,1,19.26,72.08,140.43,140.43,0,0,1-19.26,72.07A142.88,142.88,0,0,1,222.16,274a140.45,140.45,0,0,1-72.07,19.26A140.43,140.43,0,0,1,78,274a142.88,142.88,0,0,1-52.26-52.26A140.43,140.43,0,0,1,6.49,149.67,140.47,140.47,0,0,1,25.75,77.59,143,143,0,0,1,78,25.33,140.5,140.5,0,0,1,150.09,6.07a140.51,140.51,0,0,1,72.07,19.26A143,143,0,0,1,274.42,77.59Zm-40.57,84V137.7a12.14,12.14,0,0,0-12-12H174V77.87a12.14,12.14,0,0,0-12-12H138.11a12.14,12.14,0,0,0-12,12v47.86H78.28a12.14,12.14,0,0,0-12,12v23.93a12.13,12.13,0,0,0,12,12h47.87v47.87a12.13,12.13,0,0,0,12,12h23.94a12.13,12.13,0,0,0,12-12V173.6h47.87A12.13,12.13,0,0,0,233.85,161.63Z" transform="translate(-6.49 -6.07)"/></svg>