<?xml version="1.0" encoding="UTF-8"?>
<!DOCTYPE svg PUBLIC "-//W3C//DTD SVG 1.1//EN" "http://www.w3.org/Graphics/SVG/1.1/DTD/svg11.dtd">
<svg version="1.1" xmlns="http://www.w3.org/2000/svg" xmlns:xlink="http://www.w3.org/1999/xlink" viewBox="0 0 90 140">
    <defs>
        <filter id="outerShadowOn-outer" filterUnits="userSpaceOnUse">
            <feGaussianBlur stdDeviation="1.75" />
            <feOffset dx="0.1" dy="-0.1" result="blur" />
            <feFlood flood-color="rgb(0, 0, 0)" flood-opacity="0.5" />
            <feComposite in2="blur" operator="in" result="colorShadow" />
            <feComposite in="SourceGraphic" in2="colorShadow" operator="over" />
        </filter>
        <filter id="innerShadow-inner" filterUnits="userSpaceOnUse">
            <feGaussianBlur in="SourceAlpha" stdDeviation="5.5" result="blur"/>
            <feOffset dx="0.1" dy="-0.1"/>
            <feComposite in2="SourceAlpha" operator="arithmetic" k2="-1.15" k3="1.15" result="shadowDiff"/>
            <feFlood flood-color="rgb(255, 255, 255)" flood-opacity="0.65"/>
            <feComposite in2="shadowDiff" operator="in"/>
            <feComposite in2="SourceGraphic" operator="over"/>
        </filter>
    </defs>
    <g filter="url(#outerShadowOn-outer)">
        <path id="button" stroke="none" fill="rgb(108, 108, 108)" filter="url(#innerShadow-inner)" d="M 56,39 L 56,39 C 37.91,39 22.99,24.84 22.05,6.78 L 5,7 5,133 22,133 22,133 C 22,114.22 37.22,99 56,99 L 56,99 C 72.57,99 86,85.57 86,69 86,52.43 72.57,39 56,39 Z M 56,39" />
    </g>
    <path stroke="rgb(120, 120, 120)" stroke-miterlimit="4" fill="none" d="M 56,39 L 56,39 C 37.91,39 22.99,24.84 22.05,6.78 L 5,7 5,133 22,133 22,133 C 22,114.22 37.22,99 56,99 L 56,99 C 72.57,99 86,85.57 86,69 86,52.43 72.57,39 56,39 Z M 56,39" />
    <g id="group">
        <path id="phoneShadow" stroke="none" fill="rgb(47, 47, 47)" d="M 59.4,70.26 C 58.95,69.83 58.28,69.78 57.78,70.1 57.7,70.15 57.64,70.2 57.57,70.27 L 56.18,71.6 C 55.21,71.5 52.3,68.81 51.54,67.06 51.51,66.97 51.48,66.88 51.46,66.78 L 52.85,65.39 C 53.36,64.89 53.36,64.06 52.85,63.56 L 47.89,58.49 C 47.38,57.98 46.56,57.98 46.05,58.49 L 45.55,58.94 C 44.36,60.1 42.84,61.52 42.79,63.8 42.74,66.44 44.73,69.78 48.88,74.04 53.03,78.31 56.33,80.35 59.01,80.35 61.37,80.35 62.95,78.7 64.15,77.38 L 64.41,77.06 C 64.88,76.56 64.89,75.78 64.42,75.28 L 59.4,70.26 Z M 50.17,65.76 C 49.72,66.32 49.68,67.1 50.07,67.71 50.85,69.46 54.22,73.19 56.21,73.21 56.45,73.21 56.68,73.16 56.88,73.06 57,73 57.08,72.94 57.16,72.86 L 58.46,71.59 63.03,76.21 62.96,76.29 C 61.8,77.55 60.7,78.74 59.02,78.74 56.83,78.74 53.89,76.82 50.03,72.88 46.17,68.95 44.36,66.03 44.36,63.83 44.36,62.22 45.47,61.2 46.62,60.11 L 46.92,59.83 51.49,64.45 50.17,65.76 Z M 62.16,67.13 C 62.14,67.57 62.47,67.94 62.91,67.96 63.38,67.96 63.74,67.61 63.74,67.17 63.81,65.04 63.01,62.99 61.51,61.5 59.99,59.97 57.93,59.16 55.8,59.23 55.35,59.24 55.01,59.59 55.01,60.02 55.01,60.45 55.35,60.8 55.77,60.81 59.14,60.64 61.98,63.21 62.16,66.56 62.17,66.73 62.17,66.91 62.16,67.09 L 62.16,67.13 Z M 63.95,59.04 C 61.8,56.9 58.89,55.73 55.87,55.79 55.39,55.79 55.04,56.14 55.04,56.58 55.04,56.79 55.13,57 55.29,57.14 55.43,57.27 55.61,57.35 55.79,57.36 L 55.86,57.36 55.79,57.36 C 60.38,57.26 64.2,60.25 65.31,64.39 65.5,65.08 65.61,65.8 65.63,66.54 65.64,66.7 65.64,66.87 65.64,67.04 L 65.64,67.14 C 65.63,67.36 65.71,67.56 65.86,67.72 66.16,68.03 66.66,68.04 66.97,67.74 67.1,67.61 67.19,67.44 67.21,67.26 67.29,64.14 66.13,61.22 63.99,59.08 L 63.95,59.04 Z M 55.79,62.69 C 55.34,62.72 55.02,63.09 55.04,63.52 55.05,63.77 55.16,63.98 55.33,64.12 55.49,64.24 55.68,64.3 55.88,64.29 56.65,64.24 57.39,64.52 57.91,65.06 L 58.02,65.16 C 58.49,65.66 58.76,66.38 58.72,67.1 58.71,67.28 58.74,67.44 58.82,67.57 58.94,67.79 59.16,67.95 59.44,67.97 L 59.5,67.98 C 59.93,67.98 60.27,67.65 60.29,67.23 60.46,64.88 58.7,62.85 56.36,62.69 56.17,62.68 55.98,62.68 55.79,62.69 Z M 55.79,62.69" />
        <path id="phoneWhite" stroke="none" fill="rgb(217, 217, 217)" d="M 60.4,71.26 C 59.95,70.83 59.28,70.78 58.78,71.1 58.7,71.15 58.64,71.2 58.57,71.27 L 57.18,72.6 C 56.21,72.5 53.3,69.81 52.54,68.06 52.51,67.97 52.48,67.88 52.46,67.78 L 53.85,66.39 C 54.36,65.89 54.36,65.06 53.85,64.56 L 48.89,59.49 C 48.38,58.98 47.56,58.98 47.05,59.49 L 46.55,59.94 C 45.36,61.1 43.84,62.52 43.79,64.8 43.74,67.44 45.73,70.78 49.88,75.04 54.03,79.31 57.33,81.35 60.01,81.35 62.37,81.35 63.95,79.7 65.15,78.38 L 65.41,78.06 C 65.88,77.56 65.89,76.78 65.42,76.28 L 60.4,71.26 Z M 51.17,66.76 C 50.72,67.32 50.68,68.1 51.07,68.71 51.85,70.46 55.22,74.19 57.21,74.21 57.45,74.21 57.68,74.16 57.88,74.06 58,74 58.08,73.94 58.16,73.86 L 59.46,72.59 64.03,77.21 63.96,77.29 C 62.8,78.55 61.7,79.74 60.02,79.74 57.83,79.74 54.89,77.82 51.03,73.88 47.17,69.95 45.36,67.03 45.36,64.83 45.36,63.22 46.47,62.2 47.62,61.11 L 47.92,60.83 52.49,65.45 51.17,66.76 Z M 63.16,68.13 C 63.14,68.57 63.47,68.94 63.91,68.96 64.38,68.96 64.74,68.61 64.74,68.17 64.81,66.04 64.01,63.99 62.51,62.5 60.99,60.97 58.93,60.16 56.8,60.23 56.35,60.24 56.01,60.59 56.01,61.02 56.01,61.45 56.35,61.8 56.77,61.81 60.14,61.64 62.98,64.21 63.16,67.56 63.17,67.73 63.17,67.91 63.16,68.09 L 63.16,68.13 Z M 64.95,60.04 C 62.8,57.9 59.89,56.73 56.87,56.79 56.39,56.79 56.04,57.14 56.04,57.58 56.04,57.79 56.13,58 56.29,58.14 56.43,58.27 56.61,58.35 56.79,58.36 L 56.86,58.36 56.79,58.36 C 61.38,58.26 65.2,61.25 66.31,65.39 66.5,66.08 66.61,66.8 66.63,67.54 66.64,67.7 66.64,67.87 66.64,68.04 L 66.64,68.14 C 66.63,68.36 66.71,68.56 66.86,68.72 67.16,69.03 67.66,69.04 67.97,68.74 68.1,68.61 68.19,68.44 68.21,68.26 68.29,65.14 67.13,62.22 64.99,60.08 L 64.95,60.04 Z M 56.79,63.69 C 56.34,63.72 56.02,64.09 56.04,64.52 56.05,64.77 56.16,64.98 56.33,65.12 56.49,65.24 56.68,65.3 56.88,65.29 57.65,65.24 58.39,65.52 58.91,66.06 L 59.02,66.16 C 59.49,66.66 59.76,67.38 59.72,68.1 59.71,68.28 59.74,68.44 59.82,68.57 59.94,68.79 60.16,68.95 60.44,68.97 L 60.5,68.98 C 60.93,68.98 61.27,68.65 61.29,68.23 61.46,65.88 59.7,63.85 57.36,63.69 57.17,63.68 56.98,63.68 56.79,63.69 Z M 56.79,63.69" />
    </g>
</svg>
